<svg xmlns="http://www.w3.org/2000/svg" viewBox="0 0 94.28 102.41" xmlns:v="https://vecta.io/nano"><path d="M50.25,23A27.86,27.86,0,0,1,78.09,50.84V69.25a7.45,7.45,0,0,0,4.13,6.68,5.12,5.12,0,0,1-2.29,9.7H20.58a5.12,5.12,0,0,1-2.3-9.7,7.45,7.45,0,0,0,4.14-6.68V50.84A27.86,27.86,0,0,1,50.25,23Z" fill="#f4f4f4"/><path d="M78 11.39a2.46 2.46 0 0 0-1.61-.59h-.21a2.44 2.44 0 0 0-1.69.87 2.47 2.47 0 0 0-.58 1.81 2.52 2.52 0 0 0 .87 1.69 42.6 42.6 0 0 1 14.57 25.74A2.55 2.55 0 0 0 91.8 43a2.52 2.52 0 0 0 2.48-2.53 2.19 2.19 0 0 0 0-.36A47.55 47.55 0 0 0 78 11.39zm-58.53 3.79a2.483 2.483 0 1 0-3.21-3.79A47.61 47.61 0 0 0 0 40.12 2.49 2.49 0 0 0 2.08 43a2.54 2.54 0 0 0 2.86-2.1 42.64 42.64 0 0 1 14.53-25.72zm62.31 52.3a1.48 1.48 0 0 1-.78-1.34V47.72a33.94 33.94 0 0 0-24.89-32.55l-1.19-.33.58-1.1a9.36 9.36 0 0 0 1.09-4.3 9.45 9.45 0 0 0-18.89 0 9.34 9.34 0 0 0 1.08 4.29l.59 1.1-1.2.33a33.93 33.93 0 0 0-24.83 32.57v18.41a1.5 1.5 0 0 1-.85 1.35 11.09 11.09 0 0 0 5 21h16.73v1a12.93 12.93 0 1 0 25.85 0v-1h16.75a11.09 11.09 0 0 0 5-21zM47.14 5a4.48 4.48 0 1 1-4.47 4.48A4.49 4.49 0 0 1 47.14 5zm8 84.51a8 8 0 1 1-15.91 0v-1H55.1zm27.2-9.35a6.1 6.1 0 0 1-5.48 3.39h-59.4a6.12 6.12 0 0 1-2.73-11.59 6.39 6.39 0 0 0 3.58-5.79V47.72a28.91 28.91 0 0 1 28.83-28.83h0A28.9 28.9 0 0 1 76 47.72v18.42a6.43 6.43 0 0 0 3.58 5.79 6.13 6.13 0 0 1 2.72 8.2z" fill="#d2d2d2"/><path d="M47.14 20.88h0 0 0z" fill="#fff"/><path d="M51.2 46a10.07 10.07 0 0 0-7.43 0l3.72-6.41zm2.46 17.16a10 10 0 0 0 3.76-6.44l3.73 6.44zm-12.89-12a7.89 7.89 0 0 1 10.86-2.56 8.09 8.09 0 0 1 2.57 2.57l.24.41a7.88 7.88 0 1 1-14.84 3.71 7.74 7.74 0 0 1 .94-3.71zm-3.22 5.54a10 10 0 0 0 3.76 6.44h-7.49l3.73-6.44zm-7.45 8.6h34.77l-8.55-14.76-.27-.46-8.57-14.78-8.56 14.78-.26.46L30.1 65.3zm17.38-12.69a2.57 2.57 0 1 1-2.57 2.57 2.57 2.57 0 0 1 2.57-2.57m0 7.34a4.77 4.77 0 1 0-4.77-4.77A4.78 4.78 0 0 0 47.48 60" fill="#d2d2d2" fill-rule="evenodd"/></svg>