<svg xmlns="http://www.w3.org/2000/svg" viewBox="0 0 94.3 102.4" xmlns:v="https://vecta.io/nano"><path d="M50.2 23C65.6 23 78 35.5 78 50.8v18.4c0 2.8 1.6 5.4 4.1 6.7s3.6 4.3 2.3 6.9c-.9 1.7-2.6 2.8-4.6 2.8H20.6c-2.8 0-5.1-2.3-5.1-5.1 0-1.9 1.1-3.7 2.8-4.6 2.5-1.3 4.1-3.8 4.1-6.7V50.8C22.4 35.5 34.9 23 50.2 23z" fill="#23252d"/><path d="M78 11.4c-.4-.4-1-.6-1.6-.6h-.2c-.7 0-1.3.4-1.7.9s-.6 1.2-.6 1.8c.1.7.4 1.3.9 1.7 7.8 6.6 12.9 15.7 14.6 25.7.2 1.2 1.2 2.1 2.5 2.1 1.4 0 2.5-1.1 2.5-2.5v-.4C92.5 28.9 86.7 18.7 78 11.4zm-58.5 3.8c1-.9 1.2-2.5.3-3.5s-2.5-1.2-3.5-.3h0C7.6 18.7 1.8 28.9 0 40.1c-.2 1.4.7 2.6 2 2.9 1.4.2 2.6-.7 2.9-2.1 1.7-10 6.8-19.2 14.6-25.7zm62.3 52.3c-.5-.3-.8-.8-.8-1.3V47.7c-.1-15.2-10.2-28.5-24.9-32.6l-1.2-.3.6-1.1a9.16 9.16 0 0 0 1.1-4.3C56.4 4.2 52.1.1 46.8.3c-5 .2-9 4.2-9.1 9.1a9.16 9.16 0 0 0 1.1 4.3l.6 1.1-1.2.3c-14.6 4.1-24.8 17.4-24.8 32.6v18.4c0 .6-.3 1.1-.9 1.3-5.5 2.8-7.7 9.5-4.9 15 1.9 3.8 5.7 6.1 9.9 6.1h16.7v1a12.96 12.96 0 0 0 12.6 13.3c7.2.2 13.1-5.4 13.3-12.6v-.7-1h16.8C83 88.5 88 83.6 88 77.4c-.1-4.2-2.4-8-6.2-9.9h0zM47.1 5a4.48 4.48 0 0 1 4.5 4.5 4.5 4.5 0 1 1-9 0C42.7 7 44.7 5 47.1 5zm8 84.5c.5 4.4-2.7 8.3-7.1 8.8s-8.3-2.7-8.8-7.1c-.1-.6-.1-1.1 0-1.7v-1h15.9v1zm27.2-9.3c-1 2.1-3.2 3.4-5.5 3.4H17.5c-3.4 0-6.1-2.8-6.1-6.1 0-2.3 1.3-4.4 3.4-5.5 2.2-1.1 3.6-3.3 3.6-5.8V47.7c0-15.9 12.9-28.8 28.8-28.8h0C63.1 18.9 76 31.8 76 47.7v18.4c0 2.5 1.4 4.7 3.6 5.8a6.24 6.24 0 0 1 2.7 8.3h0z" fill="#48494c"/><path d="M47.1 20.9h0 0z" fill="#fff"/><path d="M51.2 46c-2.4-.9-5-.9-7.4 0l3.7-6.4 3.7 6.4zm2.5 17.2c2-1.6 3.4-3.9 3.8-6.4l3.7 6.4h-7.5zm-12.9-12c2.3-3.7 7.2-4.9 10.9-2.6 1 .7 1.9 1.5 2.6 2.6l.2.4c2 3.8.6 8.6-3.3 10.7-3.8 2-8.6.6-10.7-3.3-.6-1.1-.9-2.4-.9-3.7s.3-2.6.9-3.7l.3-.4zm-3.3 5.5c.4 2.6 1.7 4.9 3.8 6.4h-7.5l3.7-6.4zm-7.4 8.6h34.8l-8.6-14.8-.3-.4-8.6-14.8-8.6 14.8c-.1.2-.2.3-.3.5l-8.4 14.7zm17.4-12.7a2.65 2.65 0 0 1 2.6 2.6 2.65 2.65 0 0 1-2.6 2.6 2.65 2.65 0 0 1-2.6-2.6h0a2.65 2.65 0 0 1 2.6-2.6m0 7.4c2.6 0 4.8-2.1 4.8-4.8s-2.1-4.8-4.8-4.8c-2.6 0-4.8 2.1-4.8 4.8 0 2.6 2.1 4.8 4.8 4.8" fill="#48494c" fill-rule="evenodd"/><text transform="translate(821.096 -24.478)" font-family="MyriadPro-Regular" font-size="12">file:///Users/yadav/Downloads/orderbook-dark.svg</text></svg>