<svg width="200" height="200" viewBox="0 0 200 200" fill="none" xmlns="http://www.w3.org/2000/svg">
<g clip-path="url(#clip0)">
<path d="M167.5 93.4C166.9 92.8 166.2 92.5 165.4 92.5H42.5C41.7 92.5 41 92.8 40.4 93.4C39.8 94 39.5 94.7 39.5 95.5V97.8C39.5 98.6 39.8 99.3 40.4 99.9C41 100.5 41.7 100.8 42.5 100.8H47.7L55.9 162.2C56.1 163.6 56.8 164.9 57.8 165.8C58.8 166.7 60.2 167.2 61.6 167.2H145.7C147.1 167.2 148.5 166.7 149.5 165.8C150.6 164.9 151.2 163.6 151.4 162.2L159.3 100.8H165.3C166.1 100.8 166.8 100.5 167.4 99.9C168 99.3 168.3 98.6 168.3 97.8V95.5C168.4 94.7 168.1 94 167.5 93.4ZM73.6 153.2H65.4V107.6H73.6V153.2ZM102.6 153H94.4V107.4H102.6V153ZM131.9 153.2H123.6V107.6H131.9V153.2Z" fill="#23252D"/>
<path d="M116 46.8H86.9C85 46.8 83.4 48.4 83.4 50.3V51.2C83.4 53.1 85 54.7 86.9 54.7H116C117.9 54.7 119.5 53.1 119.5 51.2V50.3C119.5 48.4 117.9 46.8 116 46.8Z" fill="#1E1F20"/>
<path d="M151.9 103.9C150.9 111.6 150 119.3 149 127C147.7 137.1 146.4 147.1 145.2 157.2C144.9 159.9 143.3 161.4 140.5 161.4H56.3C53.6 161.4 52 159.9 51.6 157.2C50.8 150.7 50 144.2 49.2 137.7C48.2 129.7 47.2 121.7 46.2 113.7C45.8 110.3 45.3 106.9 44.9 103.4H40.9L42.5 116.3L45.2 138.3C46.1 145.1 46.9 151.9 47.8 158.6C48.3 162.1 50.5 164.2 53.8 165.2L54.8 165.5H142.2C142.3 165.4 142.5 165.3 142.6 165.2C144.3 164.9 145.9 164 147 162.7C148.1 161.4 148.9 159.8 149 158C149.9 151.5 150.6 145 151.4 138.5C152.3 131.2 153.2 123.9 154.1 116.6C154.6 112.2 155.2 107.8 155.7 103.3H151.7C152 103.6 151.9 103.7 151.9 103.9Z" fill="#48494C"/>
<path d="M78.9 52.2C79.3 52.6 79.8 52.9 80.3 53.1C80.8 53.3 81.4 53.4 81.9 53.4H114.9C115.5 53.4 116 53.3 116.5 53.1C117 52.9 117.5 52.6 117.9 52.2C118.3 51.8 118.6 51.3 118.8 50.8C119 50.3 119.1 49.7 119.1 49.2V45.7C119.1 42.7 117.5 41 114.4 41H98.4C93 41 87.6 41 82.2 41C79.4 41 77.7 42.7 77.7 45.5V49.1C77.7 49.7 77.8 50.2 78 50.7C78.2 51.2 78.5 51.8 78.9 52.2ZM81.8 45.2H115V49.2H81.8V45.2Z" fill="#48494C"/>
<path d="M39.8 82.5C41.1 82.7 41.8 82.2 42.4 80.9C47 71.6 51.6 62.4 56.2 53.1C56.7 51.9 57.6 50.9 58.7 50.2C59.8 49.5 61.1 49.2 62.4 49.3H73.4V45.2H62.7C60.6 45.1 58.5 45.6 56.6 46.7C54.8 47.8 53.4 49.5 52.5 51.4C48 60.4 43.5 69.4 39 78.3C38.4 79.6 37.7 80.8 37 82.3C37.9 82.4 38.9 82.4 39.8 82.5Z" fill="#48494C"/>
<path d="M134.2 49.2C135.6 49.1 137 49.5 138.2 50.2C139.4 50.9 140.3 52 140.8 53.3C145.4 62.6 150.1 72 154.8 81.3C155 81.7 155.4 82.3 155.7 82.3C157 82.4 158.3 82.4 159.7 82.4C159.6 82 159.5 81.9 159.4 81.7C154.2 71.4 149.1 61 143.9 50.7C142 47 138.8 45.2 134.8 45.1C131.7 45 128.6 45.1 125.5 45.1H123.5V49.2C127.2 49.2 130.6 49.3 134.2 49.2Z" fill="#48494C"/>
<path d="M159.4 86.6C137.8 86.6 116.1 86.6 94.5 86.6C94.1 86.5 93.8 86.5 93.4 86.6C79.9 86.6 66.3 86.6 52.8 86.6L52.7 86.5C52.5 86.4 52.2 86.3 52 86.3C51.8 86.3 51.5 86.3001 51.3 86.4001C51.2 86.4001 51.1 86.5 51 86.6C46.5 86.6 42.1 86.6 37.6 86.6C34.9 86.6 33.1 87.3 32.1 90V95.7001C33 98.3001 34.9 99.1 37.6 99.1C78.2 99 118.9 99 159.5 99.1C162.2 99.1 164 98.3001 165 95.7001V90C163.9 87.4 162 86.6 159.4 86.6ZM160.7 94.9001H36.2V90.8H160.7V94.9001Z" fill="#48494C"/>
<path d="M56.3 79.2C55.9 79 55.4 79 54.9 79.1C54.5 79.2 54.1 79.6 53.9 80L53.8 80.3C53.7 80.6 53.6 80.9 53.6 81.2C53.6 81.5 53.7 81.8 53.9 82.1C54.1 82.4 54.3 82.6 54.6 82.7C54.9 82.8 55.2 82.9 55.5 82.9C55.8 82.9 56.2 82.8 56.4 82.6C56.6 82.4 56.9 82.2 57.1 81.9L57.2 81.6C57.4 81.2 57.4 80.7 57.3 80.2C57 79.8 56.7 79.4 56.3 79.2Z" fill="#48494C"/>
<path d="M80.8 72.8L80.5 72.6C80.3 72.5 80.1 72.4 79.8 72.4C79.6 72.4 79.3 72.4 79.1 72.5C78.9 72.6 78.7 72.7 78.5 72.8C78.3 73 78.2 73.1 78.1 73.3C78 73.5 77.9 73.7 77.9 74C77.9 74.2 77.9 74.5 78 74.7C78.1 74.9 78.2 75.1 78.3 75.3C78.5 75.5 78.6 75.6 78.8 75.7L79.1 75.9C79.3 76 79.6 76.1 79.9 76.1C80.3 76.1 80.7 76 81 75.7C81.3 75.4 81.5 75.1 81.6 74.7C81.7 74.3 81.7 73.9 81.5 73.5C81.3 73.1 81.1 73 80.8 72.8Z" fill="#48494C"/>
<path d="M63.9 64.4L63.7 64.3C63.3 64.1 62.8 64.1 62.3 64.2C61.9 64.3 61.5 64.7 61.3 65.1L61.2 65.3C61.1 65.5 61 65.7 61 66C61 66.3 61 66.5 61.1 66.7C61.2 66.9 61.3 67.1 61.5 67.3C61.7 67.5 61.8 67.6 62.1 67.7C62.3 67.8 62.6 67.9 62.9 67.9C63.1 67.9 63.4 67.8 63.6 67.7C63.8 67.6 64.1 67.5 64.3 67.4C64.5 67.2 64.7 67 64.8 66.8C65 66.4 65 65.9 64.9 65.5C64.8 65.1 64.3 64.6 63.9 64.4Z" fill="#48494C"/>
<path d="M63.8 156.9C64.4 157.1 64.9 157.2 65.5 157.1H72.8C76.1 157.1 77.6 155.5 77.6 152.2V130.2V107.9C77.6 104.8 76 103.2 72.9 103.2H65.5C64.9 103.2 64.3 103.3 63.8 103.5C63.3 103.7 62.8 104 62.3 104.4C61.9 104.8 61.6 105.3 61.4 105.9C61.2 106.5 61.1 107 61.2 107.6V152.7C61.2 153.3 61.3 153.9 61.5 154.4C61.7 155 62 155.5 62.5 155.9C62.7 156.4 63.2 156.7 63.8 156.9ZM65.4 107.6H73.6V153.2H65.4V107.6Z" fill="#48494C"/>
<path d="M130.8 69.9C131.1 69.6 131.3 69.2 131.4 68.8C131.5 68.4 131.3 67.9 131.1 67.6C130.9 67.3 130.5 67 130 66.9L129.6 66.8C129.4 66.7 129.1 66.7 128.9 66.8C128.7 66.9 128.4 66.9 128.2 67C128 67.1 127.8 67.3 127.7 67.5C127.6 67.7 127.5 67.9 127.4 68.2C127.3 68.4 127.3 68.7 127.4 68.9C127.4 69.1 127.5 69.4 127.7 69.6C127.8 69.8 128 70 128.2 70.1C128.4 70.2 128.6 70.3 128.9 70.4L129.2 70.5C129.3 70.5 129.5 70.5 129.6 70.5C130 70.3 130.4 70.2 130.8 69.9Z" fill="#48494C"/>
<path d="M72.3 68.6L72 68.5C71.6 68.4 71.2 68.4 70.8 68.6C70.4 68.8 70.1 69.1 69.9 69.4C69.7 69.8 69.7 70.2 69.7 70.6C69.8 71 70 71.4 70.3 71.6L70.6 71.8C70.8 71.9 71.1 72 71.4 72C71.8 72 72.1 71.8 72.4 71.6C72.7 71.4 72.9 71 73 70.7C73.1 70.4 73.1 69.9 72.9 69.6C72.9 69.1 72.7 68.8 72.3 68.6Z" fill="#48494C"/>
<path d="M97.5 81.1L97.3 81C96.8 80.8 96.3 80.8 95.8 81C95.3 81.2 95 81.5 94.8 82C94.6 82.5 94.6 83 94.8 83.5C95 84 95.3 84.3 95.8 84.5C96 84.6 96.3 84.7 96.6 84.7C96.9 84.7 97.3 84.6 97.5 84.4C97.8 84.2 98 84 98.2 83.7L98.3 83.5C98.5 83.1 98.5 82.6 98.4 82.1C98.3 81.6 97.9 81.3 97.5 81.1Z" fill="#48494C"/>
<path d="M60 71.7C59.6 71.5 59.1 71.5 58.6 71.6C58.2 71.7 57.8 72.1 57.6 72.5L57.5 72.8C57.3 73.2 57.3 73.7 57.4 74.1C57.5 74.5 57.9 74.9 58.3 75.1C58.6 75.2 58.8 75.3 59.1 75.3C59.4 75.3 59.8 75.2 60 75.1C60.3 74.9 60.5 74.7 60.7 74.4L60.8 74.1C61 73.7 61 73.2 60.9 72.7C60.8 72.2 60.5 71.9 60 71.7Z" fill="#48494C"/>
<path d="M118.6 67.6C118.4 67.9 118.3 68.4 118.3 68.8C118.3 69.2 118.5 69.6 118.8 69.9C119.1 70.2 119.5 70.4 119.9 70.4C120 70.4 120.1 70.4 120.3 70.4L120.6 70.3C121 70.2 121.4 69.9 121.6 69.5C121.8 69.1 121.9 68.7 121.8 68.2C121.7 67.8 121.5 67.4 121.1 67.1C120.7 66.8 120.3 66.7 119.9 66.8L119.5 66.9C119.2 66.9 118.9 67.2 118.6 67.6Z" fill="#48494C"/>
<path d="M144.6 78.0999C144.4 77.8999 144.2 77.7999 144 77.7999C143.8 77.6999 143.5 77.7 143.3 77.7C143.1 77.7 142.8 77.8 142.6 77.9C142.4 78 142.2 78.0999 142 78.2999C141.8 78.4999 141.7 78.7 141.7 78.9C141.7 79.1 141.6 79.3999 141.6 79.5999C141.6 79.7999 141.7 80.0999 141.8 80.2999L141.9 80.5999C142 80.8999 142.3 81.2 142.6 81.4C142.9 81.6 143.2 81.7 143.6 81.7C143.8 81.7 144.1 81.6 144.3 81.5C144.5 81.4 144.7 81.2999 144.9 81.0999C145.1 80.8999 145.2 80.7 145.3 80.5C145.4 80.3 145.4 79.9999 145.4 79.7999C145.4 79.5999 145.3 79.2999 145.2 79.0999C145.1 78.9999 145.1 78.9 145 78.7C144.9 78.4 144.7 78.2999 144.6 78.0999Z" fill="#48494C"/>
<path d="M139 71.2L138.7 70.9C138.3 70.6 137.9 70.5 137.4 70.5C136.9 70.5 136.5 70.8 136.2 71.2C135.9 71.6 135.8 72 135.8 72.5C135.9 73 136.1 73.4 136.5 73.7L136.8 73.9C137.1 74.2 137.5 74.3 137.9 74.3C138.3 74.3 138.7 74.2 139 74C139.3 73.8 139.6 73.5 139.7 73.1C139.8 72.7 139.8 72.3 139.7 72C139.5 71.7 139.3 71.4 139 71.2Z" fill="#48494C"/>
<path d="M123.7 157.2H131.2C133.9 157.2 135.7 155.5 135.7 152.8V107.8C135.7 105.1 134 103.4 131.2 103.4H124C120.8 103.4 119.2 105 119.2 108.2V130.4C119.2 137.9 119.2 145.4 119.2 152.8C119.2 155.5 120.9 157.2 123.7 157.2ZM123.6 107.6H131.9V153.1H123.6V107.6Z" fill="#48494C"/>
<path d="M112.3 70.5C111.8 70.4 111.4 70.6 111 70.9L110.7 71.2C110.4 71.4 110.1 71.7 110 72.1C109.9 72.5 109.9 72.9 110 73.2C110.1 73.6 110.4 73.9 110.7 74.1C111 74.3 111.4 74.4 111.8 74.4C112.2 74.4 112.6 74.3 112.9 74L113.2 73.8C113.6 73.5 113.8 73.1 113.9 72.6C114 72.1 113.8 71.7 113.5 71.3C113.2 70.8 112.7 70.6 112.3 70.5Z" fill="#48494C"/>
<path d="M107 78C106.6 77.8 106.1 77.8 105.7 77.9C105.3 78 104.9 78.3 104.7 78.7C104.6 78.8 104.6 78.9 104.5 79.1C104.4 79.4 104.3 79.7 104.3 80C104.3 80.3 104.4 80.6 104.6 80.9C104.8 81.2 105 81.4 105.3 81.5C105.6 81.6 105.9 81.7 106.2 81.7C106.5 81.7 106.9 81.6 107.2 81.4C107.5 81.2 107.7 81 107.9 80.6L108.1 80.3C108.3 79.9 108.3 79.4 108.1 79C107.9 78.6 107.4 78.2 107 78Z" fill="#48494C"/>
<path d="M89.2 77L88.9 76.8C88.7 76.7 88.5 76.6 88.2 76.6C87.9 76.6 87.7 76.6 87.5 76.7C87.3 76.8 87.1 76.9 86.9 77C86.7 77.2 86.6 77.3 86.5 77.5C86.4 77.7 86.3 77.9 86.3 78.2C86.3 78.5 86.3 78.7 86.4 78.9C86.5 79.1 86.6 79.3 86.7 79.5C86.8 79.7 87 79.8 87.2 79.9L87.5 80.1C87.7 80.2 88 80.3 88.3 80.3C88.7 80.3 89.1 80.2 89.4 79.9C89.7 79.7 89.9 79.3 90 78.9C90.1 78.5 90 78.1 89.9 77.7C89.8 77.3 89.6 77.2 89.2 77Z" fill="#48494C"/>
<path d="M92.8 156.9C93.3 157.1 93.9 157.2 94.5 157.2H102.3C102.9 157.2 103.5 157.1 104 156.9C104.5 156.7 105 156.4 105.5 155.9C105.9 155.5 106.2 155 106.4 154.4C106.6 153.8 106.7 153.3 106.6 152.7V107.7C106.7 107.1 106.6 106.5 106.4 105.9C106.2 105.3 105.9 104.8 105.4 104.4C105 104 104.5 103.6 103.9 103.4C103.3 103.2 102.7 103.1 102.1 103.2H94.7C91.6 103.2 90 104.8 90 107.9V130.1C90 137.6 90 145.2 90 152.7C90 153.3 90 153.9 90.2 154.4C90.4 154.9 90.7 155.4 91.1 155.9C91.7 156.3 92.2 156.7 92.8 156.9ZM94.4 107.4H102.6V153H94.4V107.4Z" fill="#48494C"/>
</g>
<defs>
<clipPath id="clip0">
<rect width="136.4" height="126.2" fill="white" transform="translate(32 41)"/>
</clipPath>
</defs>
</svg>
