<svg id="Layer_1" data-name="Layer 1" xmlns="http://www.w3.org/2000/svg" viewBox="0 0 200 200"><defs><style>.cls-1{fill:#f4f4f4}.cls-2{fill:#d2d2d2}.cls-3{fill:#fff}</style></defs><path class="cls-1" d="M175 86.72H33.6a3.43 3.43 0 00-3.43 3.42v2.59a3.43 3.43 0 003.43 3.43h6l9.46 70.63a6.67 6.67 0 006.6 5.78h96.76a6.67 6.67 0 006.61-5.81l9.12-70.6H175a3.43 3.43 0 003.43-3.43v-2.59a3.43 3.43 0 00-3.43-3.42z"/><rect class="cls-1" x="80.69" y="34.14" width="41.49" height="9.04" rx="4.03"/><path class="cls-2" d="M174.35 90.36c-1.06 3-3.22 3.87-6.27 3.87q-70.14-.09-140.27 0c-3 0-5.2-.91-6.27-3.87v-6.57c1.07-3 3.22-3.87 6.27-3.86q70.14.07 140.27 0c3 0 5.21.92 6.27 3.87zm-148-.94h143.2v-4.66H26.33zM47.81 170.64l-1.12-.36c-3.8-1.17-6.34-3.62-6.91-7.6-1.09-7.77-2-15.57-3-23.36L33.65 114l-1.84-14.84h4.61c.5 4 1 7.89 1.5 11.82q1.72 13.83 3.46 27.65c.94 7.5 1.89 15 2.8 22.48.37 3.12 2.19 4.8 5.35 4.81h96.84c3.15 0 5-1.69 5.35-4.81q2.16-17.38 4.38-34.75 1.68-13.31 3.35-26.61c0-.19.08-.37.13-.62h4.55c-.63 5.15-1.26 10.22-1.89 15.29q-1.56 12.57-3.14 25.14c-.93 7.49-1.79 15-2.79 22.48a9.27 9.27 0 01-7.43 8.31 2.32 2.32 0 00-.5.29zM97.93 27.44h18.49c3.47 0 5.34 1.88 5.35 5.35v4a4.7 4.7 0 01-4.8 4.84h-38a4.69 4.69 0 01-4.82-4.82v-4.17c0-3.27 1.93-5.21 5.18-5.22q9.29 0 18.6.02zm-19.07 9.45H117v-4.65H78.86zM126.71 36.89v-4.68h2.34c3.58 0 7.16-.06 10.73 0 4.71.1 8.38 2.18 10.52 6.4 6 11.86 11.93 23.78 17.87 35.68.09.17.14.36.3.77-1.63 0-3.14.09-4.63-.06-.4 0-.84-.72-1.08-1.19q-8.08-16.11-16.1-32.24a7.64 7.64 0 00-7.57-4.72c-4.09.15-8.09.04-12.38.04zM27.34 75.09c.85-1.71 1.58-3.17 2.3-4.63q7.77-15.51 15.51-31a12 12 0 0111.68-7.21h12.31v4.68H56.52a7.31 7.31 0 00-7.14 4.43C44.07 52 38.71 62.61 33.46 73.3c-.69 1.41-1.48 2-3 1.81a26 26 0 00-3.12-.02z"/><path class="cls-2" d="M74 130.11v25.35c0 3.77-1.81 5.58-5.57 5.58h-8.35A4.75 4.75 0 0155 156v-51.89a4.73 4.73 0 015-5.05h8.5c3.58 0 5.45 1.85 5.45 5.39zM88.45 130v-25.5c0-3.58 1.84-5.44 5.39-5.45h8.5a4.75 4.75 0 015.1 5.14v51.75a4.73 4.73 0 01-5 5.07h-9a4.75 4.75 0 01-5-5.07c-.01-8.62.01-17.27.01-25.94zM121.87 130.05v-25.5c0-3.66 1.84-5.48 5.51-5.48h8.35c3.18 0 5.13 2 5.14 5.11v51.75c0 3.16-2 5.09-5.14 5.11h-8.65c-3.27 0-5.2-1.94-5.2-5.19q-.03-12.85-.01-25.8zM44.11 84.1a2.06 2.06 0 01-1.83-3l.09-.18A2.05 2.05 0 1146 82.78V83a2.05 2.05 0 01-1.89 1.1zM48.36 75.6a2.06 2.06 0 01-1.83-3l.17-.34a2.05 2.05 0 013.67 1.83l-.17.35a2.06 2.06 0 01-1.84 1.16zm4.33-8.67a2.17 2.17 0 01-.92-.21 2.06 2.06 0 01-.91-2.72l.17-.35a2.05 2.05 0 013.67 1.84l-.17.35a2 2 0 01-1.84 1.09zM57 58.27a2 2 0 01-.91-.22 2 2 0 01-.92-2.75l.09-.19a2.06 2.06 0 012.74-.92l.19.1a2.06 2.06 0 01.95 2.71 2 2 0 01-1.33 1.07 2 2 0 01-.81.2zM86.46 72.75a2 2 0 01-.92-.21l-.39-.2A2.05 2.05 0 0187 68.67l.39.19a2.05 2.05 0 01-.92 3.89zm-9.72-4.85a2 2 0 01-.92-.22l-.39-.2a2.05 2.05 0 111.84-3.67l.39.19a2.06 2.06 0 01-.92 3.9zM67 63a2 2 0 01-.92-.22l-.39-.19A2.06 2.06 0 0167.55 59l.39.2A2.05 2.05 0 0167 63zM95.88 77.7a2 2 0 01-.91-.22 2.16 2.16 0 011.74-4l.19.09a2.06 2.06 0 01.91 2.76l-.09.18a2.05 2.05 0 01-1.84 1.19zM92.66 84.15a2 2 0 01-.92-.22 2 2 0 01-.92-2.75l.09-.18a2.05 2.05 0 013.68 1.83l-.1.19a2 2 0 01-1.83 1.13zM104.52 84.25a2.05 2.05 0 01-2.06-2V82a2 2 0 012-2 2 2 0 012 2.06v.2a2.05 2.05 0 01-1.94 1.99zM106.78 74.11a2 2 0 01-1.86-2.93c.06-.14.13-.27.2-.41a2.06 2.06 0 013.69 1.81l-.18.35a2 2 0 01-1.85 1.18zm43.12 0a2.05 2.05 0 01-1.9-1.2l-.17-.36a2.05 2.05 0 113.68-1.82c.07.14.14.28.2.42a2 2 0 01-1 2.73 1.94 1.94 0 01-.81.2zm-36.59-8.32a2 2 0 01-1.31-3.67l.36-.29a2.05 2.05 0 112.53 3.23l-.3.24a2 2 0 01-1.28.46zm30 0a2 2 0 01-1.3-.46l-.3-.24a2.05 2.05 0 012.53-3.23l.36.29a2 2 0 01-1.29 3.64zm-20.53-4.67a2.05 2.05 0 01-.48-4l.46-.11a2.06 2.06 0 01.87 4l-.38.08a2 2 0 01-.43-.02zm11 0a1.83 1.83 0 01-.47-.05l-.39-.09a2.05 2.05 0 11.88-4l.45.1a2.05 2.05 0 01-.47 4.05zM152.17 84.25a2.05 2.05 0 01-2.06-2V82a2.05 2.05 0 012-2.06 2.05 2.05 0 012.05 2v.22a2.05 2.05 0 01-1.99 2.09z"/><path class="cls-3" d="M93.28 103.77v52.48h9.44v-52.48zM136.4 104.07h-9.51v52.39h9.51zM59.94 104v52.49h9.44V104z"/></svg>