<svg width="200" height="200" viewBox="0 0 200 200" fill="none" xmlns="http://www.w3.org/2000/svg">
<g clip-path="url(#clip0)">
<path d="M168.6 86.2V77.1C168.6 72.1 164.5 68 159.5 68H150.4C150.4 78.1 158.5 86.2 168.6 86.2Z" fill="#23252D"/>
<path d="M150.4 152.4H159.5C164.5 152.4 168.6 148.3 168.6 143.3V134.2C158.5 134.3 150.4 142.4 150.4 152.4Z" fill="#23252D"/>
<path d="M40.8 134.3V143.4C40.8 148.4 44.9 152.5 49.9 152.5H59C59 142.4 50.9 134.3 40.8 134.3Z" fill="#23252D"/>
<path d="M59 68H49.9C44.9 68 40.8 72.1 40.8 77.1V86.2C50.9 86.2 59 78.1 59 68Z" fill="#23252D"/>
<path d="M163.6 76.8C162.5 76.8 161.7 77.7 161.7 78.7V79.3C154.2 78.5 148.2 72.6 147.3 65.1H156.8C158.2 65.1 159.5 65.7 160.4 66.7C160.7 67.1 161.2 67.3 161.7 67.3C162.2 67.3 162.7 67.2 163.1 66.8C163.5 66.5 163.7 66 163.7 65.5C163.7 65 163.6 64.5 163.2 64.1C161.5 62.3 159.2 61.2 156.7 61.2H115.6V51.6C115.6 49.6 114 48 112 48H89.5C87.5 48 85.9 49.6 85.9 51.6V61.3H42.7C37.9 61.3 34 65.2 34 70V140.8C34 145.6 37.9 149.5 42.7 149.5H43.8H55.8H156.8C161.6 149.5 165.5 145.6 165.5 140.8V78.7C165.6 77.7 164.7 76.8 163.6 76.8ZM156.8 145.7H147.3C148.2 138.2 154.2 132.3 161.7 131.5V140.8C161.7 143.5 159.5 145.7 156.8 145.7ZM37.9 79.3V70C37.9 67.3 40.1 65.1 42.8 65.1H51.9C51 72.5 45.2 78.3 37.9 79.3ZM37.9 131.5C45.2 132.5 51 138.3 51.9 145.7H43.8H42.7C40 145.7 37.8 143.5 37.8 140.8V131.5H37.9ZM37.9 127.6V83.2C47.4 82.2 54.9 74.6 55.8 65.1H70V73.3C70 74.4 70.9 75.2 71.9 75.2C72.9 75.2 73.8 74.3 73.8 73.3V65.1H125.8V112.6C125.8 113.7 126.7 114.5 127.7 114.5C128.7 114.5 129.6 113.6 129.6 112.6V65.2H143.4C144.3 74.8 152 82.5 161.7 83.3V127.7C152.1 128.5 144.4 136.2 143.4 145.8H129.6V136.4C129.6 135.3 128.7 134.5 127.7 134.5C126.7 134.5 125.8 135.4 125.8 136.4V145.8H73.8V94.8C73.8 93.7 72.9 92.9 71.9 92.9C70.9 92.9 70 93.8 70 94.8V145.8H55.8C54.8 136.2 47.3 128.6 37.9 127.6ZM111.8 61.3H89.7V51.9H111.8V61.3Z" fill="#48494C"/>
</g>
<defs>
<clipPath id="clip0">
<rect width="134.6" height="104.4" fill="white" transform="translate(34 48)"/>
</clipPath>
</defs>
</svg>
