<svg width="200" height="200" viewBox="0 0 200 200" fill="none" xmlns="http://www.w3.org/2000/svg">
<path d="M40.1001 58.4C40.1001 56.5 41.6001 55 43.5001 55H167C168.9 55 170.4 56.5 170.4 58.4V82C170.4 83.8 168.9 85.3 167 85.3H43.5001C42.6154 85.3004 41.7654 84.9559 41.1306 84.3398C40.4958 83.7236 40.1261 82.8843 40.1001 82V58.4Z" fill="#1E1F20"/>
<path d="M48.6001 78.7002H52.0001V154.8H48.6001V78.7002ZM145 78.7002H148.4V154.8H145V78.7002Z" fill="#1E1F20"/>
<path d="M31.7002 95.6002C31.7002 93.7002 33.2002 92.2002 35.0002 92.2002H163.6C165.5 92.2002 167 93.7002 167 95.6002V105.7C167 107.7 165.5 109.1 163.6 109.1H35.0002C34.1159 109.074 33.2766 108.705 32.6604 108.07C32.0443 107.435 31.6998 106.585 31.7002 105.7V95.6002ZM31.7002 119.3C31.7002 117.4 33.2002 115.9 35.0002 115.9H163.6C165.5 115.9 167 117.4 167 119.3V129.4C167 131.3 165.5 132.8 163.6 132.8H35.0002C34.1159 132.774 33.2766 132.405 32.6604 131.77C32.0443 131.135 31.6998 130.285 31.7002 129.4V119.3V119.3ZM31.7002 143C31.7002 141.1 33.2002 139.6 35.0002 139.6H163.6C165.5 139.6 167 141.1 167 143V153C167 154.9 165.5 156.4 163.6 156.4H35.0002C34.1159 156.374 33.2766 156.005 32.6604 155.37C32.0443 154.735 31.6998 153.885 31.7002 153V143Z" fill="#1E1F20"/>
<path fill-rule="evenodd" clip-rule="evenodd" d="M35.0001 44C33.4262 44.0262 31.9256 44.6699 30.822 45.7923C29.7183 46.9147 29.0999 48.4259 29.1001 50V77C29.1001 78.5913 29.7322 80.1174 30.8575 81.2426C31.9827 82.3679 33.5088 83 35.1001 83H163.6C165.191 83 166.718 82.3679 167.843 81.2426C168.968 80.1174 169.6 78.5913 169.6 77V72C169.6 71.3237 169.331 70.6751 168.853 70.1969C168.375 69.7187 167.726 69.45 167.05 69.45C166.374 69.45 165.725 69.7187 165.247 70.1969C164.769 70.6751 164.5 71.3237 164.5 72V77C164.5 77.5 164.1 77.8 163.6 77.8H35.0001C34.7879 77.8 34.5844 77.7157 34.4344 77.5657C34.2844 77.4157 34.2001 77.2122 34.2001 77V50C34.2001 49.5 34.6001 49 35.0001 49H163.6C164.1 49 164.5 49.5 164.5 50V57.8C164.5 58.463 164.763 59.0989 165.232 59.5678C165.701 60.0366 166.337 60.3 167 60.3C167.663 60.3 168.299 60.0366 168.768 59.5678C169.237 59.0989 169.5 58.463 169.5 57.8V50C169.474 48.4433 168.844 46.9575 167.744 45.8565C166.643 44.7556 165.157 44.1257 163.6 44.1H35.0001V44ZM36.7001 104V97.3H162V104.1H36.7001V104ZM31.7001 95.6C31.7001 93.7 33.2001 92.2 35.0001 92.2H163.6C165.5 92.2 167 93.7 167 95.6V105.7C167 107.7 165.5 109.1 163.6 109.1H35.0001C34.1158 109.074 33.2765 108.704 32.6603 108.069C32.0442 107.435 31.6997 106.585 31.7001 105.7V95.6V95.6ZM36.7001 121V127.7H162V121H36.7001ZM35.0001 115.9C34.1158 115.926 33.2765 116.296 32.6603 116.931C32.0442 117.565 31.6997 118.415 31.7001 119.3V129.4C31.7001 131.3 33.2001 132.8 35.0001 132.8H163.6C165.5 132.8 167 131.3 167 129.4V119.3C167 117.4 165.5 115.9 163.6 115.9H35.0001ZM36.7001 151.4V144.7H162V151.4H36.7001ZM31.7001 143C31.7001 141.1 33.2001 139.6 35.0001 139.6H163.6C165.5 139.6 167 141.1 167 143V153C167 154.9 165.5 156.4 163.6 156.4H35.0001C34.1158 156.374 33.2765 156.004 32.6603 155.369C32.0442 154.735 31.6997 153.885 31.7001 153V143V143Z" fill="#515151"/>
<path d="M72.8999 56.8999V71.6999H68.8999V56.8999H72.8999ZM90.2999 71.6999V56.8999H96.6999C97.7015 56.8544 98.6985 57.0607 99.5999 57.4999C100.4 57.9999 101.1 58.4999 101.6 59.3999C102 60.0999 102.2 61.0999 102.2 62.0999C102.2 63.0999 102 64.0999 101.5 64.8999C101 65.5999 100.4 66.1999 99.4999 66.5999C98.6999 67.0999 97.6999 67.2999 96.4999 67.2999H92.7999V64.1999H95.7999L96.9999 63.8999C97.2999 63.6999 97.5999 63.4999 97.6999 63.1999C97.915 62.8733 98.0296 62.4909 98.0296 62.0999C98.0296 61.7089 97.915 61.3264 97.6999 60.9999C97.5999 60.6999 97.2999 60.4999 96.9999 60.2999L95.7999 60.0999H94.3999V71.6999H90.3999H90.2999ZM130.2 64.2999C130.2 65.8999 129.8 67.2999 129.2 68.3999C128.6 69.5999 127.7 70.3999 126.6 70.9999C125.6 71.5999 124.3 71.8999 123 71.8999C121.6 71.8999 120.4 71.5999 119.3 70.8999C118.3 70.3999 117.3 69.4999 116.7 68.3999C116.1 67.2999 115.7 65.8999 115.7 64.2999C115.7 62.5999 116.1 61.2999 116.7 60.0999C117.4 58.9999 118.2 58.0999 119.3 57.5999C120.419 56.9872 121.674 56.666 122.95 56.666C124.226 56.666 125.481 56.9872 126.6 57.5999C127.6 58.0999 128.6 58.9999 129.2 60.0999C129.8 61.1999 130.2 62.5999 130.2 64.2999ZM126 64.2999C126 63.2999 126 62.5999 125.7 61.9999C125.4 61.3999 125.1 60.9999 124.7 60.6999C124.2 60.2999 123.7 60.1999 123 60.1999C122.3 60.1999 121.7 60.2999 121.3 60.6999C120.8 60.9999 120.5 61.3999 120.3 61.9999C120 62.5999 119.9 63.3999 119.9 64.2999C119.9 65.1999 120 65.8999 120.3 66.4999C120.5 67.0999 120.8 67.4999 121.3 67.8999C121.8 68.1999 122.3 68.3999 123 68.3999C123.6 68.3999 124.2 68.1999 124.6 67.8999C125.1 67.5999 125.4 67.0999 125.6 66.4999C125.9 65.8999 126 65.1999 126 64.2999Z" fill="#515151"/>
</svg>
