<svg width="200" height="200" fill="none" xmlns="http://www.w3.org/2000/svg"><path d="M40.1 58.4c0-1.9 1.5-3.4 3.4-3.4H167c1.9 0 3.4 1.5 3.4 3.4V82c0 1.8-1.5 3.3-3.4 3.3H43.5a3.4 3.4 0 0 1-3.4-3.3V58.4Z" fill="#F4F4F4"/><path d="M48.6 78.7H52v76.1h-3.4V78.7ZM145 78.7h3.4v76.1H145V78.7Z" fill="#C4C4C4"/><path d="M31.7 95.6c0-1.9 1.5-3.4 3.3-3.4h128.6c1.9 0 3.4 1.5 3.4 3.4v10.1c0 2-1.5 3.4-3.4 3.4H35a3.4 3.4 0 0 1-3.3-3.4V95.6ZM31.7 119.3c0-1.9 1.5-3.4 3.3-3.4h128.6c1.9 0 3.4 1.5 3.4 3.4v10.1c0 1.9-1.5 3.4-3.4 3.4H35a3.4 3.4 0 0 1-3.3-3.4v-10.1ZM31.7 143c0-1.9 1.5-3.4 3.3-3.4h128.6c1.9 0 3.4 1.5 3.4 3.4V153c0 1.9-1.5 3.4-3.4 3.4H35a3.4 3.4 0 0 1-3.3-3.4V143Z" fill="#fff"/><path fill-rule="evenodd" clip-rule="evenodd" d="M35 44a6 6 0 0 0-5.9 6v27a6 6 0 0 0 6 6h128.5a6 6 0 0 0 6-6v-5a2.5 2.5 0 0 0-5.1 0v5c0 .5-.4.8-.9.8H35a.8.8 0 0 1-.8-.8V50c0-.5.4-1 .8-1h128.6c.5 0 .9.5.9 1v7.8a2.5 2.5 0 1 0 5 0V50a6 6 0 0 0-5.9-5.9H35Zm1.7 60v-6.7H162v6.8H36.7Zm-5-8.4c0-1.9 1.5-3.4 3.3-3.4h128.6c1.9 0 3.4 1.5 3.4 3.4v10.1c0 2-1.5 3.4-3.4 3.4H35a3.4 3.4 0 0 1-3.3-3.4V95.6Zm5 25.4v6.7H162V121H36.7Zm-1.7-5.1a3.4 3.4 0 0 0-3.3 3.4v10.1c0 1.9 1.5 3.4 3.3 3.4h128.6c1.9 0 3.4-1.5 3.4-3.4v-10.1c0-1.9-1.5-3.4-3.4-3.4H35Zm1.7 35.5v-6.7H162v6.7H36.7Zm-5-8.4c0-1.9 1.5-3.4 3.3-3.4h128.6c1.9 0 3.4 1.5 3.4 3.4V153c0 1.9-1.5 3.4-3.4 3.4H35a3.4 3.4 0 0 1-3.3-3.4V143Z" fill="#D2D2D2"/><path d="M72.9 56.9v14.8h-4V56.9h4ZM90.3 71.7V56.9h6.4a6 6 0 0 1 2.9.6c.8.5 1.5 1 2 1.9.4.7.6 1.7.6 2.7 0 1-.2 2-.7 2.8-.5.7-1.1 1.3-2 1.7-.8.5-1.8.7-3 .7h-3.7v-3.1h3l1.2-.3c.3-.2.6-.4.7-.7a2 2 0 0 0 0-2.2c-.1-.3-.4-.5-.7-.7l-1.2-.2h-1.4v11.6h-4ZM130.2 64.3c0 1.6-.4 3-1 4.1-.6 1.2-1.5 2-2.6 2.6-1 .6-2.3.9-3.6.9-1.4 0-2.6-.3-3.7-1-1-.5-2-1.4-2.6-2.5-.6-1.1-1-2.5-1-4.1 0-1.7.4-3 1-4.2.7-1.1 1.5-2 2.6-2.5a7.6 7.6 0 0 1 7.3 0c1 .5 2 1.4 2.6 2.5.6 1.1 1 2.5 1 4.2Zm-4.2 0c0-1 0-1.7-.3-2.3-.3-.6-.6-1-1-1.3-.5-.4-1-.5-1.7-.5s-1.3.1-1.7.5c-.5.3-.8.7-1 1.3-.3.6-.4 1.4-.4 2.3 0 .9.1 1.6.4 2.2.2.6.5 1 1 1.4.5.3 1 .5 1.7.5.6 0 1.2-.2 1.6-.5.5-.3.8-.8 1-1.4.3-.6.4-1.3.4-2.2Z" fill="#D2D2D2"/></svg>