<?xml version="1.0" encoding="UTF-8" standalone="no"?>
<svg
   xmlns:dc="http://purl.org/dc/elements/1.1/"
   xmlns:cc="http://creativecommons.org/ns#"
   xmlns:rdf="http://www.w3.org/1999/02/22-rdf-syntax-ns#"
   xmlns:svg="http://www.w3.org/2000/svg"
   xmlns="http://www.w3.org/2000/svg"
   id="svg4219"
   xml:space="preserve"
   viewBox="0 0 1080 1080"
   height="1080"
   width="1080"
   version="1.1"><metadata
   id="metadata4223"><rdf:RDF><cc:Work
       rdf:about=""><dc:format>image/svg+xml</dc:format><dc:type
         rdf:resource="http://purl.org/dc/dcmitype/StillImage" /><dc:title></dc:title></cc:Work></rdf:RDF></metadata>
<desc
   id="desc4067">Created with Fabric.js 5.2.4</desc>
<defs
   id="defs4069">
</defs>
<g
   id="3c2d579a-1ab3-476e-a3ca-21314d3e773c"
   transform="matrix(1 0 0 1 540 540)">
</g>
<g
   id="f9ecec63-7385-4024-8d1d-073689b0eba2"
   transform="matrix(1.0045819,0,0,0.99885452,537.52577,541.85567)">
<rect
   id="rect4072"
   height="1080"
   width="1080"
   ry="0"
   rx="0"
   y="-540"
   x="-540"
   style="visibility:hidden;opacity:1;vector-effect:non-scaling-stroke;fill:#ffffff;fill-rule:nonzero;stroke:none;stroke-width:1;stroke-linecap:butt;stroke-linejoin:miter;stroke-miterlimit:4;stroke-dasharray:none;stroke-dashoffset:0" />
</g>
<g
   id="g4077"
   transform="matrix(5.769737,0,0,6.3188406,728.35601,433.8028)">
<path
   id="path4075"
   d="M 155,37.84 H 91.59 c 0,0 -2.08,1.11 1.23,3 6.876817,4.008347 11.1043,11.370261 11.1,19.33 v 59.13 h 75 V 61.71 C 178.917,55.371427 176.39477,49.293956 171.90804,44.816599 167.4213,40.339242 161.33857,37.829382 155,37.84 Z"
   transform="translate(-134.93,-78.57)"
   style="opacity:1;vector-effect:non-scaling-stroke;fill:#23252d;fill-rule:nonzero;stroke:none;stroke-width:1;stroke-linecap:butt;stroke-linejoin:miter;stroke-miterlimit:4;stroke-dasharray:none;stroke-dashoffset:0" />
</g>
<g
   id="g4081"
   transform="matrix(5.769737,0,0,6.3188406,628.13567,862.66252)">
<path
   id="path4079"
   d="m 117.56,122.55 c -1.16532,0 -2.11,0.94468 -2.11,2.11 v 43.55 c 0,0.75383 0.40216,1.4504 1.055,1.82731 0.65284,0.37692 1.45716,0.37692 2.11,0 0.65284,-0.37691 1.055,-1.07348 1.055,-1.82731 v -43.55 c 0,-1.16532 -0.94468,-2.11 -2.11,-2.11 z"
   transform="translate(-117.56,-146.44)"
   style="opacity:1;vector-effect:non-scaling-stroke;fill:#48494c;fill-rule:nonzero;stroke:none;stroke-width:1;stroke-linecap:butt;stroke-linejoin:miter;stroke-miterlimit:4;stroke-dasharray:none;stroke-dashoffset:0" />
</g>
<g
   id="g4085"
   transform="matrix(5.769737,0,0,6.3188406,711.91226,862.66252)">
<path
   id="path4083"
   d="m 132.08,122.55 c -0.55961,0 -1.09629,0.2223 -1.492,0.618 -0.3957,0.39571 -0.618,0.93239 -0.618,1.492 v 43.55 c 0,0.75383 0.40216,1.4504 1.055,1.82731 0.65284,0.37692 1.45716,0.37692 2.11,0 0.65284,-0.37691 1.055,-1.07348 1.055,-1.82731 v -43.55 c 0,-1.16532 -0.94468,-2.11 -2.11,-2.11 z"
   transform="translate(-132.08,-146.44)"
   style="opacity:1;vector-effect:non-scaling-stroke;fill:#48494c;fill-rule:nonzero;stroke:none;stroke-width:1;stroke-linecap:butt;stroke-linejoin:miter;stroke-miterlimit:4;stroke-dasharray:none;stroke-dashoffset:0" />
</g>
<g
   id="g4089"
   transform="matrix(5.769737,0,0,6.3188406,516.43356,398.29092)">
<path
   id="path4087"
   d="M 175.32,56 C 175.30897,41.468436 163.53156,29.69103 149,29.68 H 74 C 59.476248,29.702052 47.711011,41.476235 47.7,56 v 8.68 c 0,0.75383 0.402164,1.450398 1.055,1.827314 0.652836,0.376915 1.457164,0.376915 2.11,0 C 51.517836,66.130398 51.92,65.43383 51.92,64.68 V 56 c -0.170289,-8.002237 4.001447,-15.470574 10.904599,-19.521659 6.903152,-4.051086 15.45765,-4.051086 22.360802,0 C 92.088553,40.529426 96.260289,47.997763 96.09,56 v 5.23 c 0,1.165321 0.944679,2.11 2.11,2.11 1.165321,0 2.11,-0.944679 2.11,-2.11 V 56 c 0.006,-8.922125 -4.511991,-17.238808 -12,-22.09 H 149 c 12.1993,0.0055 22.08897,9.890699 22.1,22.09 v 56 H 23.19 c -0.75383,0 -1.450398,0.40216 -1.827314,1.055 -0.376915,0.65284 -0.376915,1.45716 0,2.11 0.376916,0.65284 1.073484,1.055 1.827314,1.055 h 150 c 0.55961,0 1.09629,-0.2223 1.492,-0.618 0.3957,-0.39571 0.618,-0.93239 0.618,-1.492 v 0 z"
   transform="translate(-98.2,-72.95)"
   style="opacity:1;vector-effect:non-scaling-stroke;fill:#48494c;fill-rule:nonzero;stroke:none;stroke-width:1;stroke-linecap:butt;stroke-linejoin:miter;stroke-miterlimit:4;stroke-dasharray:none;stroke-dashoffset:0" />
</g>
<g
   id="g4093"
   transform="matrix(5.769737,0,0,6.3188406,642.09844,358.35585)">
<path
   id="path4091"
   d="m 126.93,66.58 c -0.0276,-3.831749 -3.15129,-6.918266 -6.98309,-6.89992 -3.83181,0.01835 -6.92583,3.134629 -6.91671,6.966467 0.009,3.831837 3.11795,6.933354 6.9498,6.933453 3.84645,-0.02747 6.9501,-3.153449 6.95,-7 z m -4.22,0 c -3e-5,1.105996 -0.66736,2.102695 -1.68995,2.524048 -1.02258,0.421353 -2.19836,0.184097 -2.97754,-0.60083 -0.77917,-0.784927 -1.00778,-1.962414 -0.57892,-2.981876 0.42887,-1.019463 1.43044,-1.679445 2.53641,-1.671342 1.49992,0.01099 2.71004,1.230039 2.71,2.73 z"
   transform="translate(-119.98,-66.63)"
   style="opacity:1;vector-effect:non-scaling-stroke;fill:#48494c;fill-rule:nonzero;stroke:none;stroke-width:1;stroke-linecap:butt;stroke-linejoin:miter;stroke-miterlimit:4;stroke-dasharray:none;stroke-dashoffset:0" />
</g>
<g
   id="g4097"
   transform="matrix(5.769737,0,0,6.3188406,779.41817,391.08745)">
<path
   id="path4095"
   d="m 148.6,68 h -16.94 c -0.75383,0 -1.4504,0.402164 -1.82731,1.055 -0.37692,0.652836 -0.37692,1.457164 0,2.11 0.37691,0.652836 1.07348,1.055 1.82731,1.055 h 14.83 v 8.15 c 0,0.559607 0.2223,1.096294 0.618,1.491995 0.39571,0.395702 0.93239,0.618005 1.492,0.618005 h 7.26 c 0.57003,0.0082 1.1191,-0.214677 1.52221,-0.617788 C 157.78532,81.4591 158.00816,80.910027 158,80.34 v -17.1 c 0,-0.559607 -0.2223,-1.096294 -0.618,-1.491995 C 156.98629,61.352303 156.44961,61.13 155.89,61.13 h -24.2 c -1.16532,0 -2.11,0.944679 -2.11,2.11 0,1.165321 0.94468,2.11 2.11,2.11 h 22.09 v 12.88 h -3 v -8.15 c -0.008,-0.566726 -0.24316,-1.106508 -0.65323,-1.497766 C 149.7167,68.190976 149.16647,67.981144 148.6,68 Z"
   transform="translate(-143.78,-71.81)"
   style="opacity:1;vector-effect:non-scaling-stroke;fill:#48494c;fill-rule:nonzero;stroke:none;stroke-width:1;stroke-linecap:butt;stroke-linejoin:miter;stroke-miterlimit:4;stroke-dasharray:none;stroke-dashoffset:0" />
</g>
<g
   id="g4101"
   transform="matrix(5.769737,0,0,6.3188406,320.95487,499.39238)">
<path
   id="path4099"
   d="m 40.13,108 h 48.39 c 0.75383,0 1.450398,-0.40216 1.827314,-1.055 0.376915,-0.65284 0.376915,-1.45716 0,-2.11 C 89.970398,104.18216 89.27383,103.78 88.52,103.78 H 42.24 V 74.11 h 46.28 c 1.165321,0 2.11,-0.944679 2.11,-2.11 0,-1.165321 -0.944679,-2.11 -2.11,-2.11 H 40.13 C 39.566936,69.8847 39.025097,70.104607 38.625059,70.500889 38.225021,70.897171 37.999975,71.436911 38,72 v 33.88 c -0.0027,0.56482 0.221163,1.10714 0.621495,1.5056 0.400332,0.39845 0.943703,0.61976 1.508505,0.6144 z"
   transform="translate(-64.31,-88.95)"
   style="opacity:1;vector-effect:non-scaling-stroke;fill:#48494c;fill-rule:nonzero;stroke:none;stroke-width:1;stroke-linecap:butt;stroke-linejoin:miter;stroke-miterlimit:4;stroke-dasharray:none;stroke-dashoffset:0" />
</g>
<g
   id="g4105"
   transform="matrix(5.769737,0,0,6.3188406,343.62994,475.06483)">
<path
   id="path4103"
   d="M 90.37,81.11 C 89.811349,80.08932 88.53187,79.713529 87.51,80.27 L 71.58,89 49,77 c -0.492034,-0.270662 -1.072288,-0.331931 -1.61,-0.17 -0.537156,0.157664 -0.989639,0.522329 -1.25784,1.013717 -0.2682,0.491389 -0.330131,1.069218 -0.17216,1.606283 0.151881,0.536594 0.511913,0.990236 1,1.26 l 23.61,12.5 c 0.08733,0.04291 0.177549,0.07966 0.27,0.11 l 0.2,0.08 c 0.176177,0.04678 0.357718,0.07031 0.54,0.07 v 0 c 0.182275,2.01e-4 0.363801,-0.02333 0.54,-0.07 l 0.2,-0.08 c 0.09246,-0.03031 0.182684,-0.06706 0.27,-0.11 L 89.53,84 c 1.02068,-0.558651 1.396471,-1.83813 0.84,-2.86 z"
   transform="translate(-68.25,-85.11)"
   style="opacity:1;vector-effect:non-scaling-stroke;fill:#48494c;fill-rule:nonzero;stroke:none;stroke-width:1;stroke-linecap:butt;stroke-linejoin:miter;stroke-miterlimit:4;stroke-dasharray:none;stroke-dashoffset:0" />
</g>
<g
   id="g4109"
   transform="matrix(5.769737,0,0,6.3188406,448.69686,544.57209)">
<path
   id="path4107"
   d="m 90.48,96.94 -6.05,-5.39 c -0.666218,-0.433806 -1.519718,-0.45632 -2.20788,-0.05824 -0.688163,0.39808 -1.094157,1.14917 -1.05025,1.942963 0.04391,0.793792 0.530262,1.495524 1.25813,1.815278 L 88.48,100.64 c 0.666218,0.43381 1.519718,0.45632 2.20788,0.0582 0.688163,-0.39808 1.094157,-1.149168 1.05025,-1.942961 C 91.694223,97.961486 91.207868,97.259754 90.48,96.94 Z"
   transform="translate(-86.46,-96.09)"
   style="opacity:1;vector-effect:non-scaling-stroke;fill:#48494c;fill-rule:nonzero;stroke:none;stroke-width:1;stroke-linecap:butt;stroke-linejoin:miter;stroke-miterlimit:4;stroke-dasharray:none;stroke-dashoffset:0" />
</g>
<g
   id="g4113"
   transform="matrix(5.769737,0,0,6.3188406,260.66112,545.70948)">
<path
   id="path4111"
   d="m 61.43,90.38 c -0.534544,-0.160263 -1.111066,-0.09901 -1.6,0.17 l -13.75,7.68 c -0.727868,0.319754 -1.214223,1.021486 -1.25813,1.81528 -0.04391,0.79379 0.362087,1.54488 1.05025,1.94296 0.688162,0.39808 1.541662,0.37557 2.20788,-0.0582 l 13.74,-7.68 c 0.751347,-0.408619 1.181706,-1.230379 1.089662,-2.080685 C 62.817619,91.319009 62.221383,90.608375 61.4,90.37 Z"
   transform="translate(-53.87,-96.28)"
   style="opacity:1;vector-effect:non-scaling-stroke;fill:#48494c;fill-rule:nonzero;stroke:none;stroke-width:1;stroke-linecap:butt;stroke-linejoin:miter;stroke-miterlimit:4;stroke-dasharray:none;stroke-dashoffset:0" />
</g>
<g
   id="g4117"
   transform="matrix(5.769737,0,0,6.3188406,846.23173,246.76513)">
<path
   id="path4115"
   d="m 162.93,58.65 c 0,0.75383 0.40216,1.450398 1.055,1.827314 0.65284,0.376915 1.45716,0.376915 2.11,0 0.65284,-0.376916 1.055,-1.073484 1.055,-1.827314 -0.011,-11.852983 -9.61702,-21.458974 -21.47,-21.47 -0.75383,0 -1.4504,0.402164 -1.82731,1.055 -0.37692,0.652836 -0.37692,1.457164 0,2.11 0.37691,0.652836 1.07348,1.055 1.82731,1.055 9.52234,0.01102 17.23898,7.727657 17.25,17.25 z"
   transform="translate(-155.36,-48.97)"
   style="opacity:1;vector-effect:non-scaling-stroke;fill:#48494c;fill-rule:nonzero;stroke:none;stroke-width:1;stroke-linecap:butt;stroke-linejoin:miter;stroke-miterlimit:4;stroke-dasharray:none;stroke-dashoffset:0" />
</g>
<g
   id="g4121"
   transform="matrix(5.769737,0,0,6.3188406,669.90857,703.87006)">
<path
   id="path4119"
   d="m 139.34,116.79 c -0.55961,0 -1.09629,0.2223 -1.492,0.618 -0.3957,0.39571 -0.618,0.93239 -0.618,1.492 v 2.73 h -24.82 v -2.73 c 0,-1.16532 -0.94468,-2.11 -2.11,-2.11 -1.16532,0 -2.11,0.94468 -2.11,2.11 v 4.83 0 c 0,1.16532 0.94468,2.11 2.11,2.11 h 29 c 0.55961,0 1.09629,-0.2223 1.492,-0.618 0.3957,-0.39571 0.618,-0.93239 0.618,-1.492 v -4.83 c 2.1e-4,-1.14988 -0.92033,-2.0882 -2.07,-2.11 z"
   transform="translate(-124.8,-121.31)"
   style="opacity:1;vector-effect:non-scaling-stroke;fill:#48494c;fill-rule:nonzero;stroke:none;stroke-width:1;stroke-linecap:butt;stroke-linejoin:miter;stroke-miterlimit:4;stroke-dasharray:none;stroke-dashoffset:0" />
</g>
<g
   id="g4125"
   transform="matrix(NaN NaN NaN NaN 0 0)">
<g
   id="g4123"
   style="">
</g>
</g>
<g
   id="g4129"
   transform="matrix(NaN NaN NaN NaN 0 0)">
<g
   id="g4127"
   style="">
</g>
</g>
<g
   id="g4133"
   transform="matrix(NaN NaN NaN NaN 0 0)">
<g
   id="g4131"
   style="">
</g>
</g>
<g
   id="g4137"
   transform="matrix(NaN NaN NaN NaN 0 0)">
<g
   id="g4135"
   style="">
</g>
</g>
<g
   id="g4141"
   transform="matrix(NaN NaN NaN NaN 0 0)">
<g
   id="g4139"
   style="">
</g>
</g>
<g
   id="g4145"
   transform="matrix(NaN NaN NaN NaN 0 0)">
<g
   id="g4143"
   style="">
</g>
</g>
<g
   id="g4149"
   transform="matrix(NaN NaN NaN NaN 0 0)">
<g
   id="g4147"
   style="">
</g>
</g>
<g
   id="g4153"
   transform="matrix(NaN NaN NaN NaN 0 0)">
<g
   id="g4151"
   style="">
</g>
</g>
<g
   id="g4157"
   transform="matrix(NaN NaN NaN NaN 0 0)">
<g
   id="g4155"
   style="">
</g>
</g>
<g
   id="g4161"
   transform="matrix(NaN NaN NaN NaN 0 0)">
<g
   id="g4159"
   style="">
</g>
</g>
<g
   id="g4165"
   transform="matrix(NaN NaN NaN NaN 0 0)">
<g
   id="g4163"
   style="">
</g>
</g>
<g
   id="g4169"
   transform="matrix(NaN NaN NaN NaN 0 0)">
<g
   id="g4167"
   style="">
</g>
</g>
<g
   id="g4173"
   transform="matrix(NaN NaN NaN NaN 0 0)">
<g
   id="g4171"
   style="">
</g>
</g>
<g
   id="g4177"
   transform="matrix(NaN NaN NaN NaN 0 0)">
<g
   id="g4175"
   style="">
</g>
</g>
<g
   id="g4181"
   transform="matrix(NaN NaN NaN NaN 0 0)">
<g
   id="g4179"
   style="">
</g>
</g>
<g
   id="g4185"
   transform="matrix(NaN NaN NaN NaN 0 0)">
<g
   id="g4183"
   style="">
</g>
</g>
<g
   id="g4189"
   transform="matrix(NaN NaN NaN NaN 0 0)">
<g
   id="g4187"
   style="">
</g>
</g>
<g
   id="g4193"
   transform="matrix(NaN NaN NaN NaN 0 0)">
<g
   id="g4191"
   style="">
</g>
</g>
<g
   id="g4197"
   transform="matrix(NaN NaN NaN NaN 0 0)">
<g
   id="g4195"
   style="">
</g>
</g>
<g
   id="g4201"
   transform="matrix(NaN NaN NaN NaN 0 0)">
<g
   id="g4199"
   style="">
</g>
</g>
<g
   id="g4205"
   transform="matrix(NaN NaN NaN NaN 0 0)">
<g
   id="g4203"
   style="">
</g>
</g>
<g
   id="g4209"
   transform="matrix(NaN NaN NaN NaN 0 0)">
<g
   id="g4207"
   style="">
</g>
</g>
<g
   id="g4213"
   transform="matrix(NaN NaN NaN NaN 0 0)">
<g
   id="g4211"
   style="">
</g>
</g>
<g
   id="g4217"
   transform="matrix(NaN NaN NaN NaN 0 0)">
<g
   id="g4215"
   style="">
</g>
</g>
</svg>