<svg id="Layer_1" data-name="Layer 1" xmlns="http://www.w3.org/2000/svg" viewBox="0 0 200 200"><defs><style>.cls-1{fill:#f4f4f4;}.cls-2{fill:#d2d2d2;}</style></defs><title>No Notifications</title><path class="cls-1" d="M155,37.84H91.59s-2.08,1.11,1.23,3a22.36,22.36,0,0,1,11.1,19.33v59.13h75V61.71A23.88,23.88,0,0,0,155,37.84Z"/><path class="cls-2" d="M117.56,122.55a2.11,2.11,0,0,0-2.11,2.11v43.55a2.11,2.11,0,1,0,4.22,0V124.66A2.11,2.11,0,0,0,117.56,122.55Z"/><path class="cls-2" d="M132.08,122.55a2.11,2.11,0,0,0-2.11,2.11v43.55a2.11,2.11,0,1,0,4.22,0V124.66A2.11,2.11,0,0,0,132.08,122.55Z"/><path class="cls-2" d="M175.32,56A26.34,26.34,0,0,0,149,29.68H74A26.34,26.34,0,0,0,47.7,56v8.68a2.11,2.11,0,1,0,4.22,0V56a22.09,22.09,0,1,1,44.17,0v5.23a2.11,2.11,0,0,0,4.22,0V56a26.3,26.3,0,0,0-12-22.09H149A22.11,22.11,0,0,1,171.1,56v56H23.19a2.11,2.11,0,1,0,0,4.22h150a2.11,2.11,0,0,0,2.11-2.11h0Z"/><path class="cls-2" d="M126.93,66.58a6.95,6.95,0,1,0-6.95,7A7,7,0,0,0,126.93,66.58Zm-4.22,0A2.73,2.73,0,1,1,120,63.85,2.73,2.73,0,0,1,122.71,66.58Z"/><path class="cls-2" d="M148.6,68H131.66a2.11,2.11,0,1,0,0,4.22h14.83v8.15a2.11,2.11,0,0,0,2.11,2.11h7.26A2.11,2.11,0,0,0,158,80.34V63.24a2.11,2.11,0,0,0-2.11-2.11h-24.2a2.11,2.11,0,1,0,0,4.22h22.09V78.23h-3V70.08A2.11,2.11,0,0,0,148.6,68Z"/><path class="cls-2" d="M40.13,108H88.52a2.11,2.11,0,1,0,0-4.22H42.24V74.11H88.52a2.11,2.11,0,0,0,0-4.22H40.13A2.11,2.11,0,0,0,38,72v33.88A2.11,2.11,0,0,0,40.13,108Z"/><path class="cls-2" d="M90.37,81.11a2.11,2.11,0,0,0-2.86-.84L71.58,89,49,77a2.09,2.09,0,0,0-1.61-.17,2.11,2.11,0,0,0-1.43,2.62,2.09,2.09,0,0,0,1,1.26L70.57,93.21a2.09,2.09,0,0,0,.27.11l.2.08a2.09,2.09,0,0,0,.54.07h0a2.1,2.1,0,0,0,.54-.07l.2-.08a2.08,2.08,0,0,0,.27-.11L89.53,84a2.11,2.11,0,0,0,.84-2.86Z"/><path class="cls-2" d="M90.48,96.94l-6.05-5.39a2.11,2.11,0,1,0-2,3.7l6.05,5.39a2.11,2.11,0,1,0,2-3.7Z"/><path class="cls-2" d="M61.43,90.38a2.08,2.08,0,0,0-1.6.17L46.08,98.23a2.11,2.11,0,1,0,2,3.7l13.74-7.68a2.11,2.11,0,0,0-.42-3.88Z"/><path class="cls-2" d="M162.93,58.65a2.11,2.11,0,1,0,4.22,0,21.49,21.49,0,0,0-21.47-21.47,2.11,2.11,0,1,0,0,4.22A17.27,17.27,0,0,1,162.93,58.65Z"/><path class="cls-2" d="M139.34,116.79a2.11,2.11,0,0,0-2.11,2.11v2.73H112.41V118.9a2.11,2.11,0,0,0-4.22,0v4.83h0a2.11,2.11,0,0,0,2.11,2.11h29a2.11,2.11,0,0,0,2.11-2.11V118.9A2.11,2.11,0,0,0,139.34,116.79Z"/><rect class="cls-2" x="96.08" y="74.89" width="4.22" height="39.66" rx="2.11" ry="2.11"/></svg>