<svg width="200" height="200" viewBox="0 0 200 200" fill="none" xmlns="http://www.w3.org/2000/svg">
<g clip-path="url(#clip0)">
<path d="M155.2 41.1H61.6C60.4 41.1 59.4 42.1 59.4 43.3V165.4C59.4 166.6 60.4 167.6 61.6 167.6H155.2C156.4 167.6 157.4 166.6 157.4 165.4V43.3C157.4 42.1 156.4 41.1 155.2 41.1ZM134.9 77.9C134.9 79.8 133.4 81.3 131.5 81.3H86.8C84.9 81.3 83.4 79.8 83.4 77.9V61.1C83.4 59.2 84.9 57.7 86.8 57.7H131.5C133.4 57.7 134.9 59.2 134.9 61.1V77.9Z" fill="#23252D"/>
<path d="M131.5 55.6H86.8C83.8 55.6 81.3 58.1 81.3 61.1V77.9C81.3 80.9 83.8 83.4 86.8 83.4H131.5C134.5 83.4 137 80.9 137 77.9V61.1C137 58 134.5 55.6 131.5 55.6ZM132.8 61.1V77.9C132.8 78.6 132.2 79.1 131.6 79.1H86.8C86.1 79.1 85.6 78.5 85.6 77.9V61.1C85.6 60.4 86.2 59.9 86.8 59.9H131.5C132.2 59.8 132.8 60.4 132.8 61.1Z" fill="#48494C"/>
<path d="M122.2 62.7H90.1H90C89 62.8 88.3 63.6 88.2 64.5C88.1 65.1 88.3 65.5999 88.6 66.0999C88.9 66.5999 89.4 66.8 90 66.9H122.2H122.3C123.3 66.8 124 65.9999 124.1 65.0999C124.2 64.4999 124 64 123.7 63.5C123.2 63.1 122.7 62.8 122.2 62.7Z" fill="#48494C"/>
<path d="M107.1 71.4H90.2C89 71.4 88.1 72.4 88.1 73.5C88.1 74.7 89.1 75.6 90.2 75.6H107.1C107.7 75.6 108.2 75.4 108.6 75C109 74.6 109.2 74.1 109.2 73.5C109.2 72.3 108.2 71.4 107.1 71.4Z" fill="#48494C"/>
<path d="M157.4 64.6C158.6 64.6 159.5 63.6 159.5 62.5V46.3C159.5 43.9 157.5 42 155.1 42H150.1V37.3C150.1 34.9 148.1 33 145.7 33H72.5C71.7 33 70.9 33.2 70.3 33.6C69.6 33.2 68.8 33 68.1 33H50C47.6 33 45.6 34.9 45.5 37.4V47.6H43.1C41.9 47.6 41 48.6 41 49.7C41 50.8 42 51.8 43.1 51.8H45.5V66.6H43.1C41.9 66.6 41 67.6 41 68.7C41 69.9 42 70.8 43.1 70.8H45.5V85.6H43.1C41.9 85.6 41 86.6 41 87.7C41 88.3 41.2 88.8 41.6 89.2C42 89.8 42.6 90 43.1 90H45.5V106H43.1C41.9 106 41 107 41 108.1C41 109.3 41.9 110.2 43.1 110.2H45.5V125H43.1C42 125 41 126 41 127.1C41 128.3 42 129.2 43.1 129.2H45.5V144.1H43.1C41.9 144.1 41 145.1 41 146.2C41 147.3 42 148.3 43.1 148.3H45.5V156.3C45.6 158.8 47.6 160.8 50.1 160.8H55.1V165.2C55.1 167.6 57.1 169.6 59.5 169.6H155.2C157.6 169.6 159.6 167.6 159.6 165.2V99.5C159.6 98.3 158.6 97.4 157.5 97.4C156.4 97.4 155.4 98.4 155.4 99.5V165.2C155.4 165.3 155.3 165.3 155.3 165.3H59.4C59.3 165.3 59.3 165.2 59.3 165.2V160.8H68.1C68.9 160.8 69.7 160.6 70.3 160.2C71 160.6 71.7 160.8 72.5 160.8H145.7C148.1 160.7 150 158.7 150 156.2V46.3H155C155.1 46.3 155.1 46.4 155.1 46.4V62.5C155.3 63.7 156.2 64.6 157.4 64.6ZM146 156.4C146 156.6 145.9 156.7 145.7 156.7H72.6C72.6 156.7 72.5 156.7 72.5 156.6V156.5C72.5 156.4 72.5 156.3 72.5 156.2V140C72.5 138.8 71.6 137.9 70.4 137.9C69.2 137.9 68.3 138.8 68.3 140V156.6C68.3 156.6 68.2 156.7 68.1 156.7H50.2C50 156.7 49.8 156.5 49.8 156.4V148.4H55.5C56.7 148.4 57.6 147.4 57.6 146.3C57.6 145.2 56.6 144.2 55.5 144.2H49.8V129.3H55.5C56.7 129.3 57.6 128.3 57.6 127.2C57.6 126 56.7 125.1 55.5 125.1H49.8V110.2H55.5C56.7 110.2 57.6 109.2 57.6 108.1C57.6 106.9 56.7 106 55.5 106H49.8V90H55.5C56.7 90 57.6 89 57.6 87.9C57.6 87.3 57.4 86.8 57 86.4C56.6 86 56.1 85.8 55.5 85.8H49.8V70.9H55.5C56.7 70.9 57.6 69.9 57.6 68.8C57.6 68.2 57.4 67.7 57 67.3C56.6 66.9 56.1 66.7 55.5 66.7H49.8V51.8H55.5C56.7 51.8 57.6 50.8 57.6 49.7C57.6 48.6 56.6 47.6 55.5 47.6H49.8V37.5C49.8 37.4 50 37.3 50.1 37.3H68.1C68.2 37.3 68.2 37.4 68.2 37.4V37.5V112.6C68.2 113.8 69.1 114.7 70.3 114.7H70.4C71 114.7 71.5 114.5 71.9 114C72.3 113.5 72.5 113.1 72.5 112.5V37.4C72.5 37.3 72.6 37.3 72.6 37.3H145.8C145.9 37.3 146 37.4 146 37.5V43.8C146 43.9 146 44.1 146 44.2C146 44.3 146 44.5 146 44.6V156.4Z" fill="#48494C"/>
</g>
<defs>
<clipPath id="clip0">
<rect width="118.5" height="136.7" fill="white" transform="translate(41 33)"/>
</clipPath>
</defs>
</svg>
