<svg width="200" height="200" viewBox="0 0 200 200" fill="none" xmlns="http://www.w3.org/2000/svg">
<g clip-path="url(#clip0)">
<path d="M136.5 131L144.8 129.6C144.8 129.6 136.1 139.1 125 143.2C111.2 148.3 110.8 139.9 110.7 135.8C110.6 134.1 110.3 123.5 109.9 111.8L97.6 118.7C97.3 127.4 97.1 134.5 97.1 135.9C97 140 96.6 148.4 82.8 143.3C77.7 141.3 72.9 138.5 68.7 134.9L58 140.9C66.5 152.6 80.7 158.1 87.3 159.8C98.5 162.6 103.8 172.6 103.8 172.6C103.8 172.6 109.1 162.6 120.4 159.8C131.7 157 164.8 143.2 154.8 106.4C154.8 106.2 153 116.1 136.5 131Z" fill="#23252D"/>
<path d="M151.8 102.7C151.5 101.8 150.7 101.1 149.7 101.2C148.8 101.3 148 102 147.8 102.9C147.8 103 145.7 112.4 130.2 126.5C129.7 127 129.4 127.7 129.5 128.4C129.7 129.5 130.8 130.3 131.9 130.1L133.3 129.9C129.9 132.7 124.9 136.3 119.3 138.3C114.8 140 111.5 140.2 109.8 139.1C107.9 137.8 107.8 134.7 107.8 132.8L107.6 127.2C107.6 126.1 106.6 125.2 105.5 125.2C104.3 125.2 103.4 126.2 103.5 127.4L103.7 133C103.8 135.5 103.9 140.1 107.6 142.6C110.6 144.6 114.9 144.5 120.9 142.3C132.6 138 141.5 128.2 141.5 128.1C141.9 127.6 142.1 126.9 142 126.3C141.9 125.7 141.6 125.3 141.1 124.9C140.6 124.5 140.1 124.5 139.5 124.6L137.9 124.9C143.7 119 147.1 114.1 149.1 110.4C150.3 119.1 148.9 126.9 145 133.7C136.3 148.6 118.4 153.8 114.9 154.7C106.5 156.8 101.3 162.5 98.9 165.7C96.5 162.4 91.2 156.8 82.8 154.7C78.4 153.5 74.1 151.8 70 149.6L69.8 149.5C68.9 149.2 68 149.5 67.4 150.2C67.1 150.7 66.9 151.2 67 151.8C67.1 152.4 67.4 152.8 67.8 153.2L67.9 153.3C72.2 155.7 76.9 157.5 81.6 158.8C91.8 161.4 96.8 170.5 96.8 170.6C97 170.9 97.2 171.2 97.5 171.4L97.4 171.8H98.6C98.6 171.8 98.6 171.8 98.7 171.8C99.5 171.8 100.2 171.4 100.5 170.7C100.7 170.3 105.7 161.5 115.7 158.9C119.5 157.9 138.8 152.2 148.3 135.9C154.1 126.3 155.1 115.2 151.8 102.7Z" fill="#48494C"/>
<path d="M101.2 57.7L101.6 68.9C101.6 70 102.6 70.9 103.7 70.9H118.6C119.3 70.9 120 70.5 120.4 69.9C121.2 68.6 122.6 67.7999 124.1 67.7999C126.5 67.7999 128.4 69.8 128.4 72.2C128.4 74.6 126.4 76.5 124 76.5C124 76.5 124 76.5 123.9 76.5C122.1 76.5 120.5 75.3999 119.9 73.7999C119.6 73 118.8 72.5 118 72.5H103.8C102.6 72.5 101.7 73.5 101.8 74.7L102.8 106.4C102.8 107.5 103.8 108.4 104.9 108.4H105.3H105.4C105.8 108.3 106.2 108.1 106.6 107.8C107 107.4 107.2 106.9 107.2 106.3L106.2 76.7H116.9C118.4 79.2 121.2 80.7999 124.2 80.7999C128.9 80.7999 132.7 76.9 132.7 72.2C132.7 69.9 131.8 67.8 130.2 66.2C128.6 64.6 126.5 63.7 124.2 63.7C124.2 63.7 124.2 63.7 124.1 63.7C121.6 63.7 119.1 64.9 117.5 66.7999H105.7L105.5 59.2C111.5 56.7 115.5 50.8 115.5 44.3C115.5 43.1 114.6 42.2 113.4 42.2C112.8 42.2 112.3 42.4 111.9 42.8C111.5 43.2 111.3 43.7 111.3 44.3C111.3 49.5 107.8 54.2 102.8 55.7C101.8 55.9 101.2 56.7 101.2 57.7Z" fill="#48494C"/>
<path d="M98.6 36.3C94.4 36.3 91 39.7 91 43.8C91 43.9 91 44.1 91 44.2C91.1 45.2 92 45.9 93 45.8C93.5 45.7 93.9 45.5 94.2 45.1C94.5 44.7 94.6 44.3 94.6 43.9C94.6 41.7 96.4 40 98.6 39.9H99.4C101.6 39.9 103.4 41.7 103.4 43.9C103.4 46.1 101.6 47.9 99.4 47.9H98.5C97.7 48 97 48.6 96.9 49.5C96.8 50 97 50.4 97.3 50.8C97.6 51.2 98 51.4 98.5 51.5H99.4H99.8C103.9 51.3 107.1 48 107.1 43.9C107.1 39.7 103.7 36.3 99.5 36.3H98.6Z" fill="#48494C"/>
<path d="M85.1 143.9C85.2 143.9 85.3 143.9 85.4 143.9C87.2 143.9 88.9 143.4 90.4 142.4C94.1 139.9 94.2 135.1 94.3 132.8L96 74.6V74.5C96 73.3 95.1 72.4 93.9 72.4H79.7C78.9 72.4 78.1 72.9 77.8 73.7C77.1 75.4 75.6 76.4 73.8 76.4C72.6 76.4 71.5 76 70.7 75.1C69.9 74.3 69.4 73.2 69.4 72C69.4 69.6 71.3 67.6 73.7 67.6C75.2 67.6 76.6 68.4 77.4 69.7C77.8 70.3 78.5 70.7 79.2 70.7H94.1C95.2 70.7 96.2 69.8 96.2 68.7L96.6 57.5C96.6 56.6 96 55.7 95.1 55.4C90.2 53.8 86.9 49.3 86.8 44.2C86.6 37.8 91.9 32.3 98.5 32.2H99.2C100.4 32.2 101.3 31.3 101.3 30.1C101.3 28.9 100.4 28 99.2 28H98.5C91.8 28 85.7 32.3 83.4 38.6C81.9 42.7 82.1 47 83.9 51C85.6 54.7 88.6 57.6 92.3 59.1L92 66.7H80.3C78.7 64.7 76.3 63.6 73.7 63.6C71.4 63.6 69.3 64.5 67.7 66.1C66.1 67.7 65.2 69.9 65.2 72.1C65.2 76.8 69 80.6 73.7 80.6C76.7 80.6 79.4 79.1 80.9 76.5H91.7L90 132.7C89.9 134.6 89.9 137.7 88 139C86.3 140.2 83 139.9 78.5 138.3C73.1 136.3 68.3 133 64.5 129.9L65.8 130.1C66.5 130.2 67.2 130 67.7 129.4C68.1 129 68.3 128.4 68.2 127.9C68.2 127.3 67.9 126.8 67.5 126.4C52.4 112.7 50.2 103.5 50 102.9V102.8C49.8 102 49.3 101.4 48.5 101.2C48 101 47.4 101.1 46.9 101.4C46.4 101.7 46.1 102.1 45.9 102.7C42.6 114.9 43.5 125.8 48.8 135.1C49.4 136 50.6 136.4 51.5 135.9C52.5 135.4 53 134.1 52.4 133C48.7 126.4 47.4 118.7 48.6 110.2C50.6 113.9 54.1 118.8 59.8 124.7L58.2 124.4C57.6 124.3 56.9 124.5 56.4 124.9C55.6 125.7 55.5 127 56.3 127.8C56.4 127.9 65.2 137.7 76.9 142C79.6 143.2 82.3 143.8 85.1 143.9Z" fill="#48494C"/>
</g>
<defs>
<clipPath id="clip0">
<rect width="112.7" height="144.5" fill="white" transform="translate(44 28)"/>
</clipPath>
</defs>
</svg>
