<svg width="200" height="200" viewBox="0 0 200 200" fill="none" xmlns="http://www.w3.org/2000/svg">
<path d="M162.342 84.8196H44.6118V75.2046C44.6118 68.3673 50.1671 62.9188 56.8976 62.9188H150.056C156.893 62.9188 162.342 68.4741 162.342 75.2046V84.8196V84.8196Z" fill="#23252D"/>
<path d="M75.9138 71.7859H64.6964C63.7349 71.7859 62.9871 71.038 62.9871 70.0765V51.7013C62.9871 50.7398 63.7349 49.9919 64.6964 49.9919H75.807C76.7685 49.9919 77.5163 50.7398 77.5163 51.7013V69.9697C77.6232 70.9312 76.8753 71.7859 75.9138 71.7859Z" fill="#23252D"/>
<path d="M140.12 71.7859H128.903C127.941 71.7859 127.194 71.038 127.194 70.0765V51.7013C127.194 50.7398 127.941 49.9919 128.903 49.9919H140.014C140.975 49.9919 141.723 50.7398 141.723 51.7013V69.9697C141.83 70.9312 141.082 71.7859 140.12 71.7859Z" fill="#23252D"/>
<path d="M145.676 79.6916C145.676 78.4096 144.607 77.3413 143.325 77.3413H140.441C139.159 77.3413 138.091 78.4096 138.091 79.6916C138.091 80.9736 139.159 82.042 140.441 82.042H143.325C144.607 82.042 145.676 80.9736 145.676 79.6916Z" fill="#48494C"/>
<path d="M144.821 53.9448H139.907V44.6504C139.907 43.3684 138.838 42.3 137.556 42.3H122.92C121.638 42.3 120.57 43.3684 120.57 44.6504V53.9448H75.7002V44.6504C75.7002 43.3684 74.6319 42.3 73.3499 42.3H58.7138C57.4318 42.3 56.3634 43.3684 56.3634 44.6504V53.9448H51.4491C49.0988 53.9448 46.8553 54.479 44.8255 55.4405C43.6503 55.9747 43.1162 57.4703 43.6503 58.6455C44.1845 59.8206 45.6802 60.3548 46.8553 59.8206C48.351 59.1796 49.8466 58.7523 51.4491 58.7523H56.3634V68.0468C56.3634 69.3288 57.4318 70.3971 58.7138 70.3971H73.3499C74.6319 70.3971 75.7002 69.3288 75.7002 68.0468V58.7523H120.57V68.0468C120.57 69.3288 121.638 70.3971 122.92 70.3971H137.556C138.838 70.3971 139.907 69.3288 139.907 68.0468V58.7523H144.821C150.697 58.7523 155.611 63.5598 155.611 69.5424V142.509C155.611 148.385 150.804 153.299 144.821 153.299H118.113C116.831 153.299 115.763 154.368 115.763 155.65C115.763 156.932 116.831 158 118.113 158H144.821C153.368 158 160.312 151.056 160.312 142.509V69.4356C160.312 60.889 153.368 53.9448 144.821 53.9448ZM70.9995 65.5896H61.1709V47.1075H70.9995V65.5896ZM135.099 65.5896H125.271V47.1075H135.099V65.5896Z" fill="#48494C"/>
<path d="M103.584 153.086H51.4491C45.5733 153.086 40.659 148.278 40.659 142.296V82.0418H128.689C129.971 82.0418 131.04 80.9735 131.04 79.6915C131.04 78.4095 129.971 77.3412 128.689 77.3412H40.7658V69.3287C40.7658 68.0467 39.6975 66.9784 38.4155 66.8716C37.0267 66.8716 35.9584 67.9399 35.9584 69.2219V69.4356V142.402C35.9584 150.949 42.9025 157.893 51.4491 157.893H103.584C104.866 157.893 105.934 156.825 105.934 155.543C105.934 154.261 104.866 153.086 103.584 153.086Z" fill="#48494C"/>
<path d="M57.5386 97.2122H51.6628V103.088H57.5386V97.2122Z" fill="#48494C"/>
<path d="M69.2902 97.2122H63.4144V103.088H69.2902V97.2122Z" fill="#48494C"/>
<path d="M80.935 97.2122H75.0592V103.088H80.935V97.2122Z" fill="#48494C"/>
<path d="M92.5798 97.2122H86.704V103.088H92.5798V97.2122Z" fill="#48494C"/>
<path d="M57.5386 108.857H51.6628V114.733H57.5386V108.857Z" fill="#48494C"/>
<path d="M69.2902 108.857H63.4144V114.733H69.2902V108.857Z" fill="#48494C"/>
<path d="M80.935 108.857H75.0592V114.733H80.935V108.857Z" fill="#48494C"/>
<path d="M57.5386 120.502H51.6628V126.378H57.5386V120.502Z" fill="#48494C"/>
<path d="M69.2902 120.502H63.4144V126.378H69.2902V120.502Z" fill="#48494C"/>
<path d="M57.5386 132.146H51.6628V138.022H57.5386V132.146Z" fill="#48494C"/>
<path d="M69.2902 132.146H63.4144V138.022H69.2902V132.146Z" fill="#48494C"/>
<path d="M80.935 132.146H75.0592V138.022H80.935V132.146Z" fill="#48494C"/>
<path d="M92.5798 132.146H86.704V138.022H92.5798V132.146Z" fill="#48494C"/>
<path d="M111.703 111.528C111.596 110.673 111.276 110.032 110.635 109.605C109.994 109.177 109.139 108.964 108.071 108.964C107.002 108.964 106.148 109.177 105.507 109.605C104.972 110.032 104.652 110.673 104.652 111.314C104.652 112.062 104.972 112.596 105.613 113.023C106.254 113.451 107.109 113.664 107.964 113.878L109.887 114.305C111.169 114.626 112.237 114.946 113.199 115.481C114.16 116.015 114.908 116.656 115.442 117.51C115.976 118.365 116.297 119.326 116.297 120.502C116.297 122.425 115.549 124.027 114.16 125.095C112.664 126.271 110.741 126.805 108.071 126.805C105.507 126.805 103.477 126.271 101.874 125.095C100.379 123.92 99.5239 122.211 99.5239 119.861H103.904C104.011 120.929 104.438 121.677 105.186 122.211C105.934 122.745 106.895 123.066 108.071 123.066C109.246 123.066 110.1 122.852 110.848 122.318C111.489 121.784 111.917 121.249 111.917 120.395C111.917 119.647 111.596 119.113 110.955 118.685C110.314 118.258 109.459 117.938 108.284 117.724L105.934 117.19C104.118 116.763 102.729 116.122 101.661 115.16C100.592 114.199 100.058 113.023 100.165 111.421C100.165 110.139 100.485 108.964 101.233 108.002C101.874 107.041 102.836 106.293 104.118 105.759C105.293 105.225 106.682 104.904 108.284 104.904C109.887 104.904 111.276 105.225 112.451 105.759C113.626 106.293 114.587 107.041 115.228 108.002C115.869 108.964 116.19 110.032 116.297 111.314H111.703V111.528Z" fill="#48494C"/>
<path d="M124.95 105.438V126.698H120.463V105.438H124.95Z" fill="#48494C"/>
<path d="M129.864 126.591V105.438H138.197C139.8 105.438 141.189 105.759 142.257 106.4C143.432 107.041 144.287 107.895 144.821 108.964C145.462 110.032 145.676 111.314 145.676 112.703C145.676 114.092 145.355 115.374 144.714 116.442C144.073 117.51 143.219 118.365 142.043 119.006C140.868 119.647 139.479 119.861 137.877 119.861H134.138V126.698H129.864V126.591ZM134.351 116.122H137.45C138.732 116.122 139.693 115.801 140.334 115.16C140.975 114.519 141.296 113.664 141.296 112.596C141.296 111.528 140.975 110.673 140.334 110.032C139.693 109.391 138.732 109.071 137.45 109.071H134.458V116.122H134.351Z" fill="#48494C"/>
</svg>
