<svg width="200" height="200" viewBox="0 0 200 200" fill="none" xmlns="http://www.w3.org/2000/svg">
<path d="M163.38 84.5185H45.6532V74.9037C45.6532 68.0666 51.2084 62.6183 57.9387 62.6183H151.095C157.932 62.6183 163.38 68.1735 163.38 74.9037V84.5185V84.5185Z" fill="#F4F4F4"/>
<path d="M76.9545 71.4851H65.7373C64.7758 71.4851 64.028 70.7373 64.028 69.7758V51.4011C64.028 50.4396 64.7758 49.6918 65.7373 49.6918H76.8476C77.8091 49.6918 78.5569 50.4396 78.5569 51.4011V69.669C78.6637 70.6305 77.9159 71.4851 76.9545 71.4851Z" fill="#E5E5E5"/>
<path d="M141.159 71.4851H129.942C128.981 71.4851 128.233 70.7373 128.233 69.7758V51.4011C128.233 50.4396 128.981 49.6918 129.942 49.6918H141.052C142.014 49.6918 142.762 50.4396 142.762 51.4011V69.669C142.869 70.6305 142.121 71.4851 141.159 71.4851Z" fill="#E5E5E5"/>
<path d="M146.714 79.3905C146.714 78.1086 145.646 77.0403 144.364 77.0403H141.48C140.198 77.0403 139.13 78.1086 139.13 79.3905C139.13 80.6725 140.198 81.7408 141.48 81.7408H144.364C145.646 81.7408 146.714 80.6725 146.714 79.3905Z" fill="#D2D2D2"/>
<path d="M145.86 53.6445H140.946V44.3503C140.946 43.0683 139.877 42 138.595 42H123.96C122.678 42 121.609 43.0683 121.609 44.3503V53.6445H76.7408V44.3503C76.7408 43.0683 75.6725 42 74.3905 42H59.7548C58.4728 42 57.4045 43.0683 57.4045 44.3503V53.6445H52.4904C50.1401 53.6445 47.8967 54.1786 45.8669 55.1401C44.6918 55.6743 44.1576 57.1699 44.6918 58.345C45.2259 59.5201 46.7215 60.0543 47.8967 59.5201C49.3923 58.8792 50.8879 58.4518 52.4904 58.4518H57.4045V67.7461C57.4045 69.028 58.4728 70.0963 59.7548 70.0963H74.3905C75.6725 70.0963 76.7408 69.028 76.7408 67.7461V58.4518H121.609V67.7461C121.609 69.028 122.678 70.0963 123.96 70.0963H138.595C139.877 70.0963 140.946 69.028 140.946 67.7461V58.4518H145.86C151.736 58.4518 156.65 63.2592 156.65 69.2417V142.207C156.65 148.082 151.842 152.996 145.86 152.996H119.152C117.87 152.996 116.802 154.065 116.802 155.347C116.802 156.629 117.87 157.697 119.152 157.697H145.86C154.406 157.697 161.35 150.753 161.35 142.207V69.1348C161.35 60.5884 154.406 53.6445 145.86 53.6445ZM72.0403 65.289H62.2119V46.8074H72.0403V65.289ZM136.138 65.289H126.31V46.8074H136.138V65.289Z" fill="#D2D2D2"/>
<path d="M104.623 152.783H52.4904C46.6147 152.783 41.7005 147.975 41.7005 141.993V81.7408H129.729C131.01 81.7408 132.079 80.6725 132.079 79.3905C132.079 78.1086 131.01 77.0403 129.729 77.0403H41.8074V69.028C41.8074 67.7461 40.7391 66.6778 39.4571 66.5709C38.0683 66.5709 37 67.6392 37 68.9212V69.1348V142.1C37 150.646 43.944 157.59 52.4904 157.59H104.623C105.905 157.59 106.974 156.522 106.974 155.24C106.974 153.958 105.905 152.783 104.623 152.783Z" fill="#D2D2D2"/>
<path d="M58.5797 96.9106H52.704V102.786H58.5797V96.9106Z" fill="#D2D2D2"/>
<path d="M70.331 96.9106H64.4553V102.786H70.331V96.9106Z" fill="#D2D2D2"/>
<path d="M81.9755 96.9106H76.0998V102.786H81.9755V96.9106Z" fill="#D2D2D2"/>
<path d="M93.6199 96.9106H87.7443V102.786H93.6199V96.9106Z" fill="#D2D2D2"/>
<path d="M58.5797 108.555H52.704V114.431H58.5797V108.555Z" fill="#D2D2D2"/>
<path d="M70.331 108.555H64.4553V114.431H70.331V108.555Z" fill="#D2D2D2"/>
<path d="M81.9755 108.555H76.0998V114.431H81.9755V108.555Z" fill="#D2D2D2"/>
<path d="M58.5797 120.2H52.704V126.075H58.5797V120.2Z" fill="#D2D2D2"/>
<path d="M70.331 120.2H64.4553V126.075H70.331V120.2Z" fill="#D2D2D2"/>
<path d="M58.5797 131.844H52.704V137.72H58.5797V131.844Z" fill="#D2D2D2"/>
<path d="M70.331 131.844H64.4553V137.72H70.331V131.844Z" fill="#D2D2D2"/>
<path d="M81.9755 131.844H76.0998V137.72H81.9755V131.844Z" fill="#D2D2D2"/>
<path d="M93.6199 131.844H87.7443V137.72H93.6199V131.844Z" fill="#D2D2D2"/>
<path d="M112.743 111.226C112.636 110.371 112.315 109.73 111.674 109.303C111.033 108.876 110.179 108.662 109.11 108.662C108.042 108.662 107.187 108.876 106.546 109.303C106.012 109.73 105.692 110.371 105.692 111.012C105.692 111.76 106.012 112.294 106.653 112.722C107.294 113.149 108.149 113.363 109.003 113.576L110.926 114.004C112.208 114.324 113.277 114.645 114.238 115.179C115.2 115.713 115.947 116.354 116.482 117.208C117.016 118.063 117.336 119.025 117.336 120.2C117.336 122.123 116.588 123.725 115.2 124.793C113.704 125.969 111.781 126.503 109.11 126.503C106.546 126.503 104.517 125.969 102.914 124.793C101.419 123.618 100.564 121.909 100.564 119.559H104.944C105.051 120.627 105.478 121.375 106.226 121.909C106.974 122.443 107.935 122.764 109.11 122.764C110.285 122.764 111.14 122.55 111.888 122.016C112.529 121.482 112.956 120.948 112.956 120.093C112.956 119.345 112.636 118.811 111.995 118.384C111.354 117.956 110.499 117.636 109.324 117.422L106.974 116.888C105.158 116.461 103.769 115.82 102.701 114.858C101.632 113.897 101.098 112.722 101.205 111.119C101.205 109.837 101.525 108.662 102.273 107.701C102.914 106.739 103.876 105.991 105.158 105.457C106.333 104.923 107.722 104.603 109.324 104.603C110.926 104.603 112.315 104.923 113.49 105.457C114.665 105.991 115.627 106.739 116.268 107.701C116.909 108.662 117.229 109.73 117.336 111.012H112.743V111.226Z" fill="#D2D2D2"/>
<path d="M125.989 105.137V126.396H121.503V105.137H125.989Z" fill="#D2D2D2"/>
<path d="M130.904 126.289V105.137H139.236C140.839 105.137 142.228 105.457 143.296 106.098C144.471 106.739 145.326 107.594 145.86 108.662C146.501 109.73 146.714 111.012 146.714 112.401C146.714 113.79 146.394 115.072 145.753 116.14C145.112 117.209 144.257 118.063 143.082 118.704C141.907 119.345 140.518 119.559 138.916 119.559H135.177V126.396H130.904V126.289ZM135.391 115.82H138.489C139.771 115.82 140.732 115.499 141.373 114.858C142.014 114.217 142.334 113.363 142.334 112.294C142.334 111.226 142.014 110.371 141.373 109.73C140.732 109.089 139.771 108.769 138.489 108.769H135.497V115.82H135.391Z" fill="#D2D2D2"/>
</svg>