<svg xmlns="http://www.w3.org/2000/svg" width="872" height="242" viewBox="0 0 872 242">
  <g fill="none" fill-rule="evenodd" transform="translate(.325 .688)">
    <polygon fill="#097939" points="812.091 1.308 746.438 232.819 871.178 119.026"/>
    <polygon fill="#ED752E" points="770.073 1.308 704.421 232.819 829.16 119.026"/>
    <path fill="#747474" d="M108.296141,2.61594687 L55.7741692,189.656148 L242.22717,190.964122 L293.436092,2.61594687 L340.705867,2.61594687 L279.304153,221.584331 C276.956528,229.956339 268.002201,236.743192 259.318609,236.743192 L20.3066088,236.743192 C5.81147761,236.743192 -2.76705275,225.430991 1.14528885,211.478951 L59.7133171,2.61594687 L108.296141,2.61594687 Z M684.724784,1.30797344 L731.994559,1.30797344 L666.342094,236.743192 L617.741529,236.743192 L684.724784,1.30797344 Z M345.958064,99.4059811 L582.306938,98.0980077 L598.06353,48.3950171 L357.775508,48.3950171 L372.21905,2.61594687 L628.29499,0.264923599 C644.237641,0.118554735 653.737254,12.4677633 649.526495,27.8475288 L625.383523,116.029549 C621.17324,131.407577 604.836006,143.877078 588.894353,143.877078 L377.471248,143.877078 L352.542065,240.667112 L306.566585,240.667112 L345.958064,99.4059811 Z"/>
  </g>
</svg>
